G04*
G04 #@! TF.GenerationSoftware,Altium Limited,Altium Designer,18.1.7 (191)*
G04*
G04 Layer_Color=32896*
%FSLAX25Y25*%
%MOIN*%
G70*
G01*
G75*
%ADD10C,0.00787*%
%ADD16C,0.01000*%
%ADD21C,0.01200*%
G36*
X149706Y147620D02*
X150076Y147597D01*
X150435Y147563D01*
X150782Y147505D01*
X151129Y147447D01*
X151453Y147366D01*
X152101Y147192D01*
X152702Y146972D01*
X153269Y146729D01*
X153790Y146475D01*
X154033Y146348D01*
X154264Y146209D01*
X154484Y146081D01*
X154692Y145943D01*
X154889Y145815D01*
X155074Y145688D01*
X155248Y145561D01*
X155410Y145445D01*
X155549Y145329D01*
X155676Y145225D01*
X155791Y145133D01*
X155896Y145052D01*
X155988Y144971D01*
X156058Y144913D01*
X156115Y144855D01*
X156150Y144820D01*
X156173Y144797D01*
X156185Y144786D01*
X156439Y144520D01*
X156682Y144242D01*
X156902Y143964D01*
X157122Y143675D01*
X157307Y143386D01*
X157492Y143108D01*
X157666Y142807D01*
X157816Y142518D01*
X157955Y142229D01*
X158094Y141939D01*
X158314Y141373D01*
X158510Y140829D01*
X158649Y140308D01*
X158776Y139811D01*
X158823Y139579D01*
X158858Y139359D01*
X158892Y139163D01*
X158927Y138966D01*
X158950Y138781D01*
X158962Y138619D01*
X158973Y138469D01*
X158985Y138341D01*
X158996Y138225D01*
Y138121D01*
X159008Y138052D01*
Y137994D01*
Y137959D01*
Y137948D01*
X158996Y137578D01*
X158973Y137207D01*
X158939Y136849D01*
X158881Y136502D01*
X158823Y136154D01*
X158742Y135830D01*
X158568Y135183D01*
X158348Y134581D01*
X158117Y134014D01*
X157862Y133493D01*
X157724Y133250D01*
X157596Y133019D01*
X157469Y132799D01*
X157330Y132591D01*
X157203Y132394D01*
X157076Y132209D01*
X156960Y132036D01*
X156844Y131874D01*
X156729Y131735D01*
X156624Y131607D01*
X156532Y131492D01*
X156439Y131388D01*
X156370Y131295D01*
X156300Y131226D01*
X156254Y131168D01*
X156219Y131133D01*
X156196Y131110D01*
X156185Y131098D01*
X155919Y130844D01*
X155641Y130601D01*
X155363Y130369D01*
X155074Y130161D01*
X154785Y129964D01*
X154496Y129779D01*
X154206Y129617D01*
X153917Y129455D01*
X153628Y129317D01*
X153339Y129189D01*
X152772Y128958D01*
X152216Y128773D01*
X151696Y128622D01*
X151210Y128507D01*
X150978Y128449D01*
X150759Y128414D01*
X150550Y128379D01*
X150354Y128356D01*
X150168Y128322D01*
X150006Y128310D01*
X149856Y128298D01*
X149729Y128287D01*
X149613Y128275D01*
X149509D01*
X149440Y128264D01*
X149335D01*
X148965Y128275D01*
X148595Y128298D01*
X148236Y128333D01*
X147889Y128391D01*
X147554Y128449D01*
X147218Y128530D01*
X146582Y128703D01*
X145980Y128923D01*
X145413Y129166D01*
X144893Y129421D01*
X144650Y129548D01*
X144418Y129687D01*
X144198Y129814D01*
X143990Y129941D01*
X143793Y130080D01*
X143608Y130208D01*
X143435Y130323D01*
X143273Y130439D01*
X143134Y130555D01*
X143007Y130659D01*
X142891Y130751D01*
X142787Y130832D01*
X142694Y130913D01*
X142625Y130983D01*
X142567Y131029D01*
X142532Y131064D01*
X142509Y131087D01*
X142498Y131098D01*
X142243Y131365D01*
X142000Y131642D01*
X141769Y131920D01*
X141560Y132209D01*
X141364Y132498D01*
X141179Y132788D01*
X141005Y133077D01*
X140855Y133366D01*
X140704Y133655D01*
X140577Y133945D01*
X140346Y134511D01*
X140160Y135067D01*
X140010Y135588D01*
X139894Y136074D01*
X139836Y136305D01*
X139802Y136525D01*
X139767Y136733D01*
X139732Y136930D01*
X139709Y137115D01*
X139698Y137277D01*
X139686Y137427D01*
X139674Y137554D01*
X139663Y137670D01*
X139651Y137774D01*
Y137844D01*
Y137901D01*
Y137936D01*
Y137948D01*
X139663Y138318D01*
X139686Y138688D01*
X139721Y139047D01*
X139778Y139394D01*
X139836Y139730D01*
X139917Y140065D01*
X140091Y140701D01*
X140311Y141303D01*
X140554Y141870D01*
X140808Y142391D01*
X140936Y142634D01*
X141074Y142865D01*
X141202Y143085D01*
X141340Y143293D01*
X141468Y143490D01*
X141595Y143675D01*
X141722Y143849D01*
X141838Y144010D01*
X141954Y144149D01*
X142058Y144277D01*
X142150Y144392D01*
X142231Y144496D01*
X142312Y144589D01*
X142370Y144658D01*
X142428Y144716D01*
X142463Y144751D01*
X142486Y144774D01*
X142498Y144786D01*
X142764Y145040D01*
X143041Y145283D01*
X143319Y145515D01*
X143608Y145723D01*
X143897Y145920D01*
X144175Y146105D01*
X144476Y146278D01*
X144765Y146429D01*
X145054Y146579D01*
X145344Y146706D01*
X145911Y146938D01*
X146454Y147123D01*
X146975Y147273D01*
X147473Y147389D01*
X147704Y147447D01*
X147924Y147482D01*
X148120Y147516D01*
X148317Y147551D01*
X148502Y147574D01*
X148664Y147586D01*
X148815Y147597D01*
X148942Y147609D01*
X149058Y147620D01*
X149162Y147632D01*
X149335D01*
X149706Y147620D01*
D02*
G37*
G36*
X138508Y146769D02*
X134586Y142685D01*
X134470Y141586D01*
X134227Y138913D01*
X134030Y136993D01*
X138230Y132677D01*
X137941Y132399D01*
X133996Y136449D01*
X133764Y133961D01*
X133637D01*
Y133012D01*
X132758D01*
Y133961D01*
X130039D01*
X129935Y133776D01*
X129807Y133591D01*
X129611Y133383D01*
X129356Y133209D01*
X129067Y133116D01*
X128789Y133082D01*
X128500Y133093D01*
X128292Y133151D01*
X128049Y133255D01*
X127840Y133383D01*
X127678Y133545D01*
X127516Y133776D01*
X127401Y134030D01*
X127331Y134274D01*
X127308Y134470D01*
X127331Y134713D01*
X127366Y134898D01*
X127435Y135072D01*
X127540Y135268D01*
X127655Y135431D01*
X127817Y135581D01*
X127991Y135697D01*
X128153Y135778D01*
X128130Y135986D01*
X124670Y132399D01*
X124381Y132688D01*
X128095Y136530D01*
X127794Y139885D01*
X127586Y142315D01*
X126475D01*
Y143877D01*
X126764D01*
X123953Y146769D01*
X124242Y147047D01*
X126892Y144316D01*
Y144513D01*
X126834Y144559D01*
X126764Y144606D01*
X126695Y144675D01*
X126626Y144756D01*
X126591Y144860D01*
X126556Y144953D01*
X126544Y145068D01*
X126568Y145219D01*
X126602Y145300D01*
X126707Y145462D01*
X126822Y145566D01*
X126973Y145635D01*
X127135Y145658D01*
X127297Y145635D01*
X127435Y145577D01*
X127551Y145508D01*
X127609Y145439D01*
X127713Y145531D01*
X127887Y145647D01*
X128095Y145751D01*
X128396Y145867D01*
X128720Y145959D01*
X129044Y146029D01*
X129391Y146087D01*
X129668Y146121D01*
Y146468D01*
X131890D01*
Y146168D01*
X132063D01*
X132353Y146133D01*
X132653Y146098D01*
X132943Y146052D01*
Y146237D01*
X133903D01*
Y145786D01*
X134019Y145728D01*
X134169Y145658D01*
X134343Y145554D01*
X134482Y145462D01*
X134609Y145346D01*
X134701Y145265D01*
X134759Y145184D01*
X134806Y145091D01*
X134782Y144930D01*
X135338D01*
Y144224D01*
X134724D01*
X134632Y143310D01*
X138219Y147047D01*
X138508Y146769D01*
D02*
G37*
G36*
X137663Y129194D02*
Y129136D01*
Y129055D01*
Y128974D01*
Y128882D01*
Y128801D01*
Y128743D01*
Y128732D01*
Y128720D01*
Y128338D01*
Y128153D01*
Y127979D01*
Y127841D01*
Y127725D01*
Y127679D01*
Y127644D01*
Y127632D01*
Y127621D01*
Y127401D01*
Y127204D01*
Y127019D01*
Y126857D01*
Y126718D01*
Y126626D01*
Y126556D01*
Y126545D01*
Y126533D01*
Y126371D01*
Y126256D01*
Y126163D01*
Y126105D01*
Y126070D01*
Y126059D01*
Y126047D01*
X125017D01*
Y126070D01*
Y126128D01*
Y126198D01*
Y126290D01*
Y126383D01*
Y126452D01*
Y126510D01*
Y126533D01*
Y126915D01*
Y127100D01*
Y127262D01*
Y127412D01*
Y127517D01*
Y127563D01*
Y127598D01*
Y127609D01*
Y127621D01*
Y127841D01*
Y128049D01*
Y128234D01*
Y128396D01*
Y128535D01*
Y128639D01*
Y128697D01*
Y128720D01*
Y128813D01*
Y128882D01*
Y129009D01*
Y129102D01*
Y129160D01*
Y129194D01*
Y129206D01*
Y129217D01*
X137663D01*
Y129194D01*
D02*
G37*
G36*
X175549Y144925D02*
X176024Y144867D01*
X176475Y144774D01*
X176903Y144647D01*
X177308Y144508D01*
X177678Y144346D01*
X178037Y144173D01*
X178349Y143999D01*
X178639Y143825D01*
X178893Y143652D01*
X179113Y143490D01*
X179298Y143351D01*
X179437Y143224D01*
X179541Y143131D01*
X179610Y143073D01*
X179633Y143050D01*
X179969Y142692D01*
X180258Y142310D01*
X180513Y141928D01*
X180721Y141546D01*
X180906Y141153D01*
X181057Y140783D01*
X181184Y140412D01*
X181288Y140065D01*
X181358Y139741D01*
X181415Y139441D01*
X181462Y139174D01*
X181485Y138943D01*
X181496Y138839D01*
X181508Y138746D01*
Y138677D01*
X181519Y138607D01*
Y138561D01*
Y138526D01*
Y138503D01*
Y138492D01*
X181496Y138006D01*
X181439Y137531D01*
X181346Y137080D01*
X181219Y136652D01*
X181080Y136247D01*
X180918Y135877D01*
X180756Y135530D01*
X180571Y135206D01*
X180397Y134928D01*
X180235Y134674D01*
X180073Y134454D01*
X179923Y134269D01*
X179807Y134130D01*
X179715Y134014D01*
X179657Y133956D01*
X179633Y133933D01*
X179275Y133598D01*
X178893Y133308D01*
X178511Y133054D01*
X178118Y132846D01*
X177736Y132660D01*
X177354Y132510D01*
X176984Y132383D01*
X176637Y132279D01*
X176313Y132209D01*
X176012Y132151D01*
X175746Y132105D01*
X175515Y132082D01*
X175410Y132070D01*
X175318Y132059D01*
X175249D01*
X175179Y132047D01*
X174820D01*
X174716Y132059D01*
X174531D01*
X174473Y132070D01*
X174416D01*
Y134026D01*
X174635Y134003D01*
X174751Y133991D01*
X174844D01*
X174936Y133979D01*
X175063D01*
X175410Y133991D01*
X175734Y134037D01*
X176047Y134107D01*
X176348Y134188D01*
X176625Y134280D01*
X176892Y134396D01*
X177134Y134512D01*
X177354Y134639D01*
X177562Y134766D01*
X177736Y134882D01*
X177886Y134998D01*
X178014Y135090D01*
X178118Y135183D01*
X178199Y135241D01*
X178245Y135287D01*
X178257Y135298D01*
X178488Y135553D01*
X178696Y135819D01*
X178870Y136085D01*
X179020Y136363D01*
X179148Y136629D01*
X179252Y136895D01*
X179344Y137150D01*
X179414Y137393D01*
X179460Y137624D01*
X179506Y137832D01*
X179529Y138017D01*
X179552Y138179D01*
X179564Y138307D01*
X179576Y138411D01*
Y138469D01*
Y138492D01*
X179564Y138839D01*
X179518Y139163D01*
X179448Y139487D01*
X179367Y139788D01*
X179275Y140065D01*
X179159Y140331D01*
X179043Y140574D01*
X178916Y140794D01*
X178789Y140991D01*
X178673Y141164D01*
X178558Y141326D01*
X178465Y141454D01*
X178372Y141546D01*
X178315Y141627D01*
X178268Y141674D01*
X178257Y141685D01*
X178002Y141917D01*
X177736Y142125D01*
X177470Y142298D01*
X177192Y142460D01*
X176926Y142587D01*
X176660Y142692D01*
X176406Y142784D01*
X176163Y142854D01*
X175931Y142900D01*
X175723Y142946D01*
X175538Y142981D01*
X175376Y142992D01*
X175249Y143004D01*
X175144Y143016D01*
X175063D01*
X174820Y143004D01*
X174716D01*
X174612Y142992D01*
X174531Y142981D01*
X174473D01*
X174427Y142969D01*
X174416D01*
Y144913D01*
X174635Y144936D01*
X174739D01*
X174844Y144948D01*
X175063D01*
X175549Y144925D01*
D02*
G37*
G36*
X164581D02*
X165055Y144867D01*
X165507Y144774D01*
X165935Y144647D01*
X166340Y144508D01*
X166710Y144346D01*
X167057Y144173D01*
X167381Y143999D01*
X167659Y143825D01*
X167913Y143652D01*
X168133Y143490D01*
X168318Y143351D01*
X168457Y143224D01*
X168573Y143131D01*
X168631Y143073D01*
X168654Y143050D01*
X168989Y142692D01*
X169278Y142310D01*
X169533Y141928D01*
X169741Y141546D01*
X169926Y141153D01*
X170077Y140783D01*
X170204Y140412D01*
X170308Y140065D01*
X170378Y139741D01*
X170435Y139441D01*
X170482Y139174D01*
X170505Y138943D01*
X170516Y138839D01*
X170528Y138746D01*
Y138677D01*
X170539Y138607D01*
Y138561D01*
Y138526D01*
Y138503D01*
Y138492D01*
X170516Y138006D01*
X170458Y137531D01*
X170366Y137080D01*
X170239Y136652D01*
X170100Y136247D01*
X169938Y135877D01*
X169776Y135530D01*
X169591Y135206D01*
X169417Y134928D01*
X169255Y134674D01*
X169093Y134454D01*
X168943Y134269D01*
X168827Y134130D01*
X168735Y134014D01*
X168677Y133956D01*
X168654Y133933D01*
X168295Y133598D01*
X167913Y133308D01*
X167531Y133054D01*
X167149Y132846D01*
X166756Y132660D01*
X166386Y132510D01*
X166016Y132383D01*
X165669Y132279D01*
X165345Y132209D01*
X165044Y132151D01*
X164778Y132105D01*
X164546Y132082D01*
X164442Y132070D01*
X164350Y132059D01*
X164280D01*
X164211Y132047D01*
X163852D01*
X163748Y132059D01*
X163563D01*
X163505Y132070D01*
X163447D01*
X163459Y134026D01*
X163679Y134003D01*
X163783Y133991D01*
X163887D01*
X163968Y133979D01*
X164095D01*
X164384Y133991D01*
X164673Y134026D01*
X164951Y134072D01*
X165206Y134130D01*
X165460Y134211D01*
X165692Y134292D01*
X165911Y134384D01*
X166108Y134477D01*
X166293Y134570D01*
X166455Y134662D01*
X166594Y134743D01*
X166710Y134824D01*
X166802Y134882D01*
X166872Y134928D01*
X166918Y134963D01*
X166930Y134975D01*
X167149Y135171D01*
X167358Y135368D01*
X167531Y135576D01*
X167693Y135796D01*
X167844Y136004D01*
X167971Y136224D01*
X168087Y136432D01*
X168179Y136629D01*
X168260Y136814D01*
X168330Y136988D01*
X168387Y137138D01*
X168434Y137277D01*
X168468Y137381D01*
X168492Y137462D01*
X168503Y137508D01*
Y137531D01*
X164731D01*
Y139464D01*
X168503D01*
X168434Y139753D01*
X168341Y140019D01*
X168237Y140285D01*
X168121Y140528D01*
X167994Y140748D01*
X167867Y140956D01*
X167728Y141153D01*
X167601Y141326D01*
X167473Y141488D01*
X167346Y141627D01*
X167242Y141743D01*
X167138Y141835D01*
X167057Y141917D01*
X166999Y141974D01*
X166953Y142009D01*
X166941Y142021D01*
X166698Y142194D01*
X166455Y142345D01*
X166212Y142483D01*
X165969Y142599D01*
X165726Y142692D01*
X165495Y142773D01*
X165264Y142842D01*
X165044Y142888D01*
X164847Y142935D01*
X164662Y142958D01*
X164500Y142981D01*
X164361Y143004D01*
X164245D01*
X164164Y143016D01*
X164095D01*
X163852Y143004D01*
X163748D01*
X163644Y142992D01*
X163563Y142981D01*
X163505D01*
X163459Y142969D01*
X163447D01*
Y144913D01*
X163586Y144925D01*
X163702Y144936D01*
X163817D01*
X163910Y144948D01*
X164095D01*
X164581Y144925D01*
D02*
G37*
%LPC*%
G36*
X155132Y144450D02*
X155126Y144444D01*
X155248Y144334D01*
X155491Y144103D01*
X155132Y144450D01*
D02*
G37*
G36*
X155491Y144103D02*
X155503Y144091D01*
X155502Y144091D01*
X155491Y144103D01*
D02*
G37*
G36*
X155503Y144091D02*
X155514Y144068D01*
X155549Y144034D01*
X155595Y143987D01*
X155653Y143918D01*
X155722Y143849D01*
X155803Y143756D01*
X155815Y143767D01*
X155503Y144091D01*
D02*
G37*
G36*
X149497Y146660D02*
X149335D01*
X149000Y146648D01*
X148676Y146637D01*
X148352Y146602D01*
X148039Y146556D01*
X147426Y146429D01*
X146848Y146267D01*
X146304Y146070D01*
X145807Y145850D01*
X145332Y145619D01*
X144904Y145387D01*
X144522Y145144D01*
X144337Y145029D01*
X144175Y144913D01*
X144025Y144797D01*
X143886Y144693D01*
X143747Y144600D01*
X143631Y144508D01*
X143527Y144415D01*
X143435Y144334D01*
X143365Y144277D01*
X143296Y144219D01*
X143249Y144161D01*
X143215Y144138D01*
X143192Y144115D01*
X143180Y144103D01*
X142949Y143860D01*
X142729Y143617D01*
X142521Y143363D01*
X142335Y143108D01*
X142162Y142853D01*
X142000Y142587D01*
X141838Y142333D01*
X141699Y142067D01*
X141456Y141546D01*
X141248Y141037D01*
X141074Y140540D01*
X140947Y140077D01*
X140831Y139626D01*
X140762Y139220D01*
X140727Y139035D01*
X140704Y138862D01*
X140681Y138700D01*
X140658Y138549D01*
X140646Y138422D01*
X140635Y138295D01*
Y138191D01*
X140623Y138110D01*
Y138040D01*
Y137994D01*
Y137959D01*
Y137948D01*
X140635Y137612D01*
X140646Y137288D01*
X140681Y136964D01*
X140727Y136652D01*
X140855Y136039D01*
X141016Y135460D01*
X141213Y134916D01*
X141433Y134407D01*
X141665Y133945D01*
X141896Y133517D01*
X142139Y133123D01*
X142254Y132950D01*
X142370Y132776D01*
X142486Y132626D01*
X142590Y132487D01*
X142683Y132360D01*
X142775Y132232D01*
X142841Y132159D01*
X145517Y134836D01*
X145378Y134928D01*
X145251Y135021D01*
X145205Y135067D01*
X145170Y135102D01*
X145147Y135113D01*
X145135Y135125D01*
X144997Y135264D01*
X144881Y135402D01*
X144777Y135553D01*
X144696Y135715D01*
X144615Y135865D01*
X144557Y136016D01*
X144464Y136316D01*
X144430Y136455D01*
X144406Y136571D01*
X144395Y136687D01*
X144383Y136791D01*
X144372Y136860D01*
Y136930D01*
Y136964D01*
Y136976D01*
Y137161D01*
X144395Y137335D01*
X144453Y137635D01*
X144534Y137913D01*
X144569Y138029D01*
X144615Y138133D01*
X144661Y138225D01*
X144707Y138306D01*
X144754Y138376D01*
X144788Y138434D01*
X144823Y138480D01*
X144846Y138515D01*
X144858Y138526D01*
X144869Y138538D01*
X144962Y138642D01*
X145066Y138735D01*
X145159Y138804D01*
X145263Y138873D01*
X145459Y138978D01*
X145633Y139047D01*
X145795Y139082D01*
X145911Y139105D01*
X145957Y139116D01*
X146026D01*
X146165Y139105D01*
X146292Y139082D01*
X146420Y139035D01*
X146547Y138978D01*
X146778Y138839D01*
X146987Y138677D01*
X147149Y138515D01*
X147218Y138445D01*
X147276Y138376D01*
X147322Y138318D01*
X147357Y138272D01*
X147380Y138249D01*
X147392Y138237D01*
Y141373D01*
X147600D01*
X148896Y140840D01*
X148826Y140678D01*
X148699Y140725D01*
X148595Y140736D01*
X148526Y140748D01*
X148502D01*
X148421Y140736D01*
X148363Y140725D01*
X148317Y140701D01*
X148306Y140690D01*
X148259Y140621D01*
X148225Y140551D01*
X148213Y140482D01*
X148202Y140470D01*
Y140459D01*
X148190Y140424D01*
Y140366D01*
X148178Y140250D01*
Y140100D01*
X148167Y139938D01*
Y139799D01*
Y139672D01*
Y139626D01*
Y139591D01*
Y139568D01*
Y139556D01*
Y137485D01*
X149312Y138642D01*
X149254Y138862D01*
X149231Y138978D01*
X149220Y139070D01*
X149208Y139163D01*
Y139232D01*
Y139278D01*
Y139290D01*
X149220Y139498D01*
X149266Y139683D01*
X149312Y139857D01*
X149382Y139996D01*
X149440Y140123D01*
X149497Y140204D01*
X149544Y140262D01*
X149555Y140285D01*
X149694Y140435D01*
X149833Y140563D01*
X149972Y140667D01*
X150099Y140748D01*
X150215Y140806D01*
X150307Y140852D01*
X150365Y140875D01*
X150388Y140887D01*
X150596Y140944D01*
X150816Y140991D01*
X151036Y141014D01*
X151256Y141037D01*
X151453Y141049D01*
X151534Y141060D01*
X151742D01*
X155126Y144444D01*
X155005Y144554D01*
X154750Y144763D01*
X154496Y144948D01*
X154229Y145121D01*
X153975Y145283D01*
X153709Y145445D01*
X153454Y145584D01*
X152934Y145827D01*
X152425Y146035D01*
X151927Y146209D01*
X151453Y146336D01*
X151013Y146452D01*
X150608Y146521D01*
X150423Y146556D01*
X150249Y146579D01*
X150087Y146602D01*
X149937Y146625D01*
X149798Y146637D01*
X149682Y146648D01*
X149578D01*
X149497Y146660D01*
D02*
G37*
G36*
X151325Y140644D02*
X151187Y140597D01*
X151059Y140551D01*
X151013Y140528D01*
X150978Y140516D01*
X150955Y140493D01*
X150944D01*
X150839Y140424D01*
X150735Y140343D01*
X150654Y140250D01*
X150585Y140169D01*
X150527Y140088D01*
X150492Y140019D01*
X150469Y139973D01*
X150458Y139961D01*
X150400Y139834D01*
X150365Y139753D01*
X150354Y139695D01*
X150342Y139672D01*
X151325Y140644D01*
D02*
G37*
G36*
X152274Y140216D02*
X150481Y138434D01*
X150539Y138341D01*
X150596Y138272D01*
X150631Y138225D01*
X150643Y138214D01*
X150782Y138087D01*
X150932Y137982D01*
X151071Y137913D01*
X151198Y137867D01*
X151314Y137844D01*
X151406Y137832D01*
X151464Y137820D01*
X151487D01*
X151592Y137832D01*
X151707Y137844D01*
X151753D01*
X151788Y137855D01*
X151823D01*
X151973Y137867D01*
X152124Y137890D01*
X152182Y137901D01*
X152228Y137913D01*
X152263Y137925D01*
X152274D01*
Y140216D01*
D02*
G37*
G36*
X146489Y138434D02*
X146397D01*
X146223Y138411D01*
X146073Y138364D01*
X145934Y138295D01*
X145807Y138214D01*
X145702Y138133D01*
X145633Y138064D01*
X145575Y138017D01*
X145563Y137994D01*
X145436Y137809D01*
X145344Y137601D01*
X145274Y137392D01*
X145228Y137184D01*
X145205Y136999D01*
X145193Y136918D01*
X145182Y136849D01*
Y136791D01*
Y136744D01*
Y136721D01*
Y136710D01*
X145193Y136397D01*
X145240Y136120D01*
X145297Y135877D01*
X145367Y135692D01*
X145448Y135541D01*
X145506Y135437D01*
X145552Y135368D01*
X145563Y135345D01*
X145633Y135240D01*
X145702Y135171D01*
X145760Y135113D01*
X145772Y135102D01*
X145783D01*
X147392Y136698D01*
Y137936D01*
X147276Y138040D01*
X147183Y138121D01*
X147091Y138179D01*
X147021Y138237D01*
X146964Y138272D01*
X146929Y138295D01*
X146906Y138318D01*
X146894D01*
X146709Y138388D01*
X146628Y138411D01*
X146547Y138422D01*
X146489Y138434D01*
D02*
G37*
G36*
X155803Y143756D02*
X153107Y141060D01*
X154091D01*
Y140887D01*
X153848D01*
X153720Y140875D01*
X153616Y140852D01*
X153512Y140817D01*
X153443Y140782D01*
X153385Y140748D01*
X153339Y140713D01*
X153315Y140690D01*
X153304Y140678D01*
X153258Y140609D01*
X153234Y140505D01*
X153211Y140377D01*
X153188Y140250D01*
Y140123D01*
X153177Y140030D01*
Y139949D01*
Y139938D01*
Y139926D01*
Y135796D01*
Y135611D01*
X153188Y135449D01*
X153200Y135333D01*
X153223Y135240D01*
X153234Y135171D01*
X153258Y135125D01*
X153269Y135102D01*
Y135090D01*
X153350Y135009D01*
X153443Y134940D01*
X153535Y134893D01*
X153628Y134870D01*
X153709Y134847D01*
X153778Y134836D01*
X154091D01*
Y134650D01*
X151348D01*
Y134836D01*
X151592D01*
X151719Y134847D01*
X151823Y134870D01*
X151916Y134893D01*
X151997Y134940D01*
X152054Y134974D01*
X152101Y134997D01*
X152124Y135021D01*
X152135Y135032D01*
X152182Y135113D01*
X152216Y135217D01*
X152239Y135345D01*
X152251Y135472D01*
X152263Y135599D01*
X152274Y135703D01*
Y135773D01*
Y135784D01*
Y135796D01*
Y137647D01*
X152147Y137624D01*
X152031Y137601D01*
X151939Y137589D01*
X151858Y137578D01*
X151788Y137566D01*
X151742Y137554D01*
X151696D01*
X151499Y137531D01*
X151406D01*
X151337Y137520D01*
X151187D01*
X150909Y137531D01*
X150654Y137578D01*
X150435Y137635D01*
X150249Y137693D01*
X150110Y137763D01*
X150006Y137809D01*
X149937Y137855D01*
X149914Y137867D01*
X148167Y136120D01*
Y135067D01*
X148016Y134974D01*
X147866Y134893D01*
X147739Y134824D01*
X147611Y134766D01*
X147519Y134720D01*
X147438Y134685D01*
X147380Y134674D01*
X147369Y134662D01*
X147230Y134616D01*
X147102Y134581D01*
X146964Y134558D01*
X146848Y134546D01*
X146755Y134535D01*
X146674Y134523D01*
X146570D01*
X143516Y131469D01*
X143169Y131793D01*
X143142Y131821D01*
X143145Y131816D01*
X143169Y131793D01*
X143180Y131781D01*
X143423Y131550D01*
X143666Y131330D01*
X143921Y131133D01*
X144175Y130936D01*
X144430Y130763D01*
X144696Y130601D01*
X144950Y130450D01*
X145216Y130312D01*
X145737Y130069D01*
X146246Y129860D01*
X146744Y129687D01*
X147206Y129560D01*
X147658Y129444D01*
X148063Y129374D01*
X148248Y129340D01*
X148421Y129317D01*
X148583Y129293D01*
X148734Y129270D01*
X148861Y129259D01*
X148988Y129247D01*
X149092D01*
X149173Y129236D01*
X149335D01*
X149671Y129247D01*
X149995Y129270D01*
X150319Y129293D01*
X150631Y129340D01*
X151244Y129467D01*
X151811Y129629D01*
X152355Y129826D01*
X152864Y130045D01*
X153339Y130277D01*
X153767Y130508D01*
X154148Y130751D01*
X154322Y130867D01*
X154496Y130971D01*
X154646Y131087D01*
X154785Y131191D01*
X154912Y131295D01*
X155039Y131388D01*
X155143Y131469D01*
X155236Y131550D01*
X155306Y131619D01*
X155375Y131677D01*
X155421Y131723D01*
X155456Y131758D01*
X155479Y131769D01*
X155491Y131781D01*
X155722Y132024D01*
X155942Y132267D01*
X156139Y132521D01*
X156335Y132776D01*
X156509Y133042D01*
X156671Y133297D01*
X156833Y133563D01*
X156972Y133829D01*
X157214Y134350D01*
X157423Y134859D01*
X157596Y135356D01*
X157724Y135819D01*
X157828Y136270D01*
X157909Y136675D01*
X157943Y136860D01*
X157967Y137034D01*
X157990Y137196D01*
X158013Y137346D01*
X158024Y137473D01*
X158036Y137601D01*
Y137705D01*
X158048Y137786D01*
Y137855D01*
Y137901D01*
Y137936D01*
Y137948D01*
X158036Y138283D01*
X158013Y138607D01*
X157990Y138931D01*
X157932Y139244D01*
X157816Y139857D01*
X157643Y140435D01*
X157457Y140979D01*
X157238Y141477D01*
X157006Y141951D01*
X156763Y142379D01*
X156532Y142761D01*
X156416Y142946D01*
X156300Y143108D01*
X156185Y143258D01*
X156081Y143397D01*
X155988Y143536D01*
X155884Y143652D01*
X155803Y143756D01*
D02*
G37*
G36*
X142841Y132159D02*
X142833Y132151D01*
X143010Y131962D01*
X143064Y131897D01*
X143091Y131875D01*
X143142Y131821D01*
X143122Y131850D01*
X143091Y131875D01*
X143010Y131962D01*
X143007Y131966D01*
X142949Y132036D01*
X142868Y132128D01*
X142841Y132159D01*
D02*
G37*
G36*
X131473Y146075D02*
X130062D01*
Y145844D01*
X131473D01*
Y146075D01*
D02*
G37*
G36*
X131890Y145751D02*
Y145439D01*
X129668D01*
Y145705D01*
X129206Y145635D01*
X128789Y145531D01*
X128442Y145439D01*
X128164Y145311D01*
X127945Y145184D01*
X127782Y145034D01*
Y144930D01*
X132943D01*
Y145612D01*
X132630Y145670D01*
X132283Y145716D01*
X131890Y145751D01*
D02*
G37*
G36*
X133510Y145844D02*
X133348D01*
Y145311D01*
X133498D01*
X133510Y145844D01*
D02*
G37*
G36*
X133903Y145323D02*
Y144930D01*
X134377D01*
X134389Y144999D01*
X134273Y145115D01*
X134123Y145219D01*
X133903Y145323D01*
D02*
G37*
G36*
X127192Y145253D02*
X127158D01*
X127088Y145242D01*
X127042Y145219D01*
X126996Y145196D01*
X126973Y145161D01*
X126950Y145091D01*
Y145068D01*
Y145057D01*
X126961Y144987D01*
X126984Y144941D01*
X127019Y144906D01*
X127054Y144883D01*
X127123Y144860D01*
X127158D01*
X127227Y144872D01*
X127273Y144895D01*
X127308Y144918D01*
X127331Y144964D01*
X127354Y145022D01*
Y145045D01*
Y145057D01*
X127343Y145126D01*
X127320Y145173D01*
X127297Y145207D01*
X127250Y145230D01*
X127192Y145253D01*
D02*
G37*
G36*
X127655Y143483D02*
X126880D01*
Y142720D01*
X127655D01*
Y143483D01*
D02*
G37*
G36*
X131531Y141736D02*
X129449D01*
Y141609D01*
X131531D01*
Y141736D01*
D02*
G37*
G36*
X134319Y144224D02*
X127840D01*
X127875Y143877D01*
X128049D01*
Y143136D01*
X129021Y142141D01*
X131936D01*
Y141216D01*
X129923D01*
X131265Y139827D01*
X134192Y142870D01*
X134319Y144224D01*
D02*
G37*
G36*
X134134Y142222D02*
X131543Y139538D01*
X133672Y137351D01*
X134134Y142222D01*
D02*
G37*
G36*
X128049Y142558D02*
Y142315D01*
X128002D01*
X128465Y136923D01*
X130987Y139538D01*
X129356Y141216D01*
X129021D01*
Y141551D01*
X128049Y142558D01*
D02*
G37*
G36*
X131265Y139249D02*
X128511Y136391D01*
X128558Y135893D01*
X128743Y135905D01*
X128951Y135893D01*
X129206Y135824D01*
X129449Y135697D01*
X129634Y135569D01*
X129807Y135396D01*
X129958Y135176D01*
X130085Y134898D01*
X130143Y134586D01*
X130131Y134378D01*
X133394D01*
X133625Y136819D01*
X131265Y139249D01*
D02*
G37*
G36*
X128801Y135199D02*
X128731D01*
X128604Y135188D01*
X128500Y135164D01*
X128407Y135130D01*
X128326Y135095D01*
X128257Y135037D01*
X128211Y134979D01*
X128118Y134852D01*
X128072Y134713D01*
X128049Y134609D01*
X128037Y134563D01*
Y134528D01*
Y134505D01*
Y134493D01*
X128049Y134366D01*
X128072Y134262D01*
X128106Y134169D01*
X128141Y134088D01*
X128199Y134030D01*
X128257Y133973D01*
X128384Y133892D01*
X128511Y133834D01*
X128627Y133811D01*
X128662Y133799D01*
X128731D01*
X128858Y133811D01*
X128963Y133834D01*
X129055Y133869D01*
X129136Y133903D01*
X129206Y133961D01*
X129263Y134019D01*
X129344Y134146D01*
X129402Y134274D01*
X129425Y134389D01*
X129437Y134424D01*
Y134459D01*
Y134482D01*
Y134493D01*
X129425Y134621D01*
X129402Y134725D01*
X129368Y134817D01*
X129321Y134898D01*
X129275Y134968D01*
X129217Y135026D01*
X129078Y135107D01*
X128951Y135164D01*
X128835Y135188D01*
X128801Y135199D01*
D02*
G37*
G36*
X133244Y133973D02*
X133151D01*
Y133406D01*
X133244D01*
Y133973D01*
D02*
G37*
%LPD*%
G36*
X128893Y134945D02*
X129009Y134898D01*
X129090Y134817D01*
X129148Y134736D01*
X129183Y134644D01*
X129194Y134563D01*
X129206Y134517D01*
Y134493D01*
X129183Y134343D01*
X129136Y134227D01*
X129055Y134146D01*
X128963Y134088D01*
X128882Y134054D01*
X128801Y134042D01*
X128754Y134030D01*
X128731D01*
X128581Y134054D01*
X128465Y134100D01*
X128384Y134181D01*
X128326Y134262D01*
X128292Y134343D01*
X128280Y134424D01*
X128268Y134470D01*
Y134493D01*
X128292Y134655D01*
X128338Y134771D01*
X128419Y134852D01*
X128500Y134910D01*
X128581Y134945D01*
X128662Y134956D01*
X128708Y134968D01*
X128731D01*
X128893Y134945D01*
D02*
G37*
%LPC*%
G36*
X128743Y134563D02*
X128731D01*
X128685Y134551D01*
X128673Y134528D01*
X128662Y134505D01*
Y134493D01*
X128673Y134459D01*
X128697Y134435D01*
X128720Y134424D01*
X128731D01*
X128766Y134435D01*
X128789Y134459D01*
X128801Y134482D01*
Y134493D01*
X128789Y134540D01*
X128766Y134551D01*
X128743Y134563D01*
D02*
G37*
%LPD*%
D10*
X237100Y218200D02*
Y264900D01*
X207500Y210000D02*
X228900D01*
X182000D02*
X203400D01*
X173800Y218200D02*
Y239500D01*
X182200Y273200D02*
X228800D01*
X173800Y243600D02*
Y264800D01*
X178504Y214696D02*
X232346Y268454D01*
X178604Y268404D02*
X232396Y214696D01*
X205500Y204900D02*
Y219500D01*
X168700Y241500D02*
X183300D01*
D16*
X269137Y290734D02*
X273136D01*
X271803Y289401D01*
X273136Y288068D01*
X269137D01*
Y286736D02*
X273136D01*
X271136D01*
X270470Y286069D01*
Y284736D01*
X271136Y284070D01*
X273136D01*
Y280737D02*
Y282070D01*
X272469Y282737D01*
X271136D01*
X270470Y282070D01*
Y280737D01*
X271136Y280071D01*
X271803D01*
Y282737D01*
X273136Y278738D02*
X270470D01*
Y276739D01*
X271136Y276072D01*
X273136D01*
X270470Y270741D02*
X272469D01*
X273136Y270074D01*
Y268075D01*
X270470D01*
X273136Y266742D02*
Y264743D01*
X272469Y264076D01*
X271803Y264743D01*
Y266075D01*
X271136Y266742D01*
X270470Y266075D01*
Y264076D01*
X273136Y262743D02*
Y261410D01*
Y262077D01*
X270470D01*
Y262743D01*
X273136Y259411D02*
X270470D01*
Y257412D01*
X271136Y256745D01*
X273136D01*
X274469Y254079D02*
Y253413D01*
X273802Y252747D01*
X270470D01*
Y254746D01*
X271136Y255412D01*
X272469D01*
X273136Y254746D01*
Y252747D01*
Y245415D02*
Y246748D01*
X272469Y247415D01*
X271136D01*
X270470Y246748D01*
Y245415D01*
X271136Y244749D01*
X271803D01*
Y247415D01*
X270470Y243416D02*
X273136Y240750D01*
X271803Y242083D01*
X270470Y240750D01*
X273136Y243416D01*
X269804Y238751D02*
X270470D01*
Y239417D01*
Y238085D01*
Y238751D01*
X272469D01*
X273136Y238085D01*
Y234086D02*
Y235419D01*
X272469Y236085D01*
X271136D01*
X270470Y235419D01*
Y234086D01*
X271136Y233419D01*
X271803D01*
Y236085D01*
X270470Y232086D02*
X273136D01*
X271803D01*
X271136Y231420D01*
X270470Y230753D01*
Y230087D01*
X273136Y228088D02*
X270470D01*
Y226088D01*
X271136Y225422D01*
X273136D01*
X270470Y223423D02*
Y222090D01*
X271136Y221423D01*
X273136D01*
Y223423D01*
X272469Y224089D01*
X271803Y223423D01*
Y221423D01*
X273136Y220090D02*
Y218757D01*
Y219424D01*
X269137D01*
Y220090D01*
X269804Y212759D02*
X269137Y212093D01*
Y210760D01*
X269804Y210094D01*
X270470D01*
X271136Y210760D01*
Y211426D01*
Y210760D01*
X271803Y210094D01*
X272469D01*
X273136Y210760D01*
Y212093D01*
X272469Y212759D01*
X273136Y208761D02*
X272469D01*
Y208094D01*
X273136D01*
Y208761D01*
X269804Y205428D02*
X269137Y204762D01*
Y203429D01*
X269804Y202763D01*
X270470D01*
X271136Y203429D01*
Y204096D01*
Y203429D01*
X271803Y202763D01*
X272469D01*
X273136Y203429D01*
Y204762D01*
X272469Y205428D01*
X270470Y201430D02*
X273136Y200097D01*
X270470Y198764D01*
X274469Y193432D02*
X270470D01*
Y191433D01*
X271136Y190767D01*
X272469D01*
X273136Y191433D01*
Y193432D01*
Y188767D02*
Y187434D01*
X272469Y186768D01*
X271136D01*
X270470Y187434D01*
Y188767D01*
X271136Y189434D01*
X272469D01*
X273136Y188767D01*
X270470Y185435D02*
X272469D01*
X273136Y184768D01*
X272469Y184102D01*
X273136Y183435D01*
X272469Y182769D01*
X270470D01*
X273136Y179437D02*
Y180770D01*
X272469Y181436D01*
X271136D01*
X270470Y180770D01*
Y179437D01*
X271136Y178770D01*
X271803D01*
Y181436D01*
X270470Y177437D02*
X273136D01*
X271803D01*
X271136Y176771D01*
X270470Y176104D01*
Y175438D01*
X273802Y172772D02*
X273136Y172106D01*
X272469D01*
Y172772D01*
X273136D01*
Y172106D01*
X273802Y172772D01*
X274469Y173439D01*
X281667Y280071D02*
Y281404D01*
X281001Y282070D01*
X279668D01*
X279001Y281404D01*
Y280071D01*
X279668Y279404D01*
X280334D01*
Y282070D01*
X281667Y278072D02*
X279001D01*
Y276072D01*
X279668Y275406D01*
X281667D01*
Y274073D02*
Y272074D01*
X281001Y271407D01*
X280334Y272074D01*
Y273407D01*
X279668Y274073D01*
X279001Y273407D01*
Y271407D01*
Y270074D02*
X281001D01*
X281667Y269408D01*
Y267408D01*
X279001D01*
Y266075D02*
X281667D01*
X280334D01*
X279668Y265409D01*
X279001Y264743D01*
Y264076D01*
X281667Y260077D02*
Y261410D01*
X281001Y262077D01*
X279668D01*
X279001Y261410D01*
Y260077D01*
X279668Y259411D01*
X280334D01*
Y262077D01*
X283000Y254079D02*
X279001D01*
Y252080D01*
X279668Y251414D01*
X281001D01*
X281667Y252080D01*
Y254079D01*
Y249414D02*
Y248081D01*
X281001Y247415D01*
X279668D01*
X279001Y248081D01*
Y249414D01*
X279668Y250081D01*
X281001D01*
X281667Y249414D01*
X279001Y246082D02*
X281001D01*
X281667Y245415D01*
X281001Y244749D01*
X281667Y244083D01*
X281001Y243416D01*
X279001D01*
X281667Y240084D02*
Y241417D01*
X281001Y242083D01*
X279668D01*
X279001Y241417D01*
Y240084D01*
X279668Y239417D01*
X280334D01*
Y242083D01*
X279001Y238085D02*
X281667D01*
X280334D01*
X279668Y237418D01*
X279001Y236752D01*
Y236085D01*
X281667Y230087D02*
Y228088D01*
X281001Y227421D01*
X280334Y228088D01*
Y229421D01*
X279668Y230087D01*
X279001Y229421D01*
Y227421D01*
Y226088D02*
X281001D01*
X281667Y225422D01*
X281001Y224756D01*
X281667Y224089D01*
X281001Y223423D01*
X279001D01*
X281667Y222090D02*
Y220757D01*
Y221423D01*
X279001D01*
Y222090D01*
X278335Y218091D02*
X279001D01*
Y218757D01*
Y217425D01*
Y218091D01*
X281001D01*
X281667Y217425D01*
X279001Y212759D02*
Y214759D01*
X279668Y215425D01*
X281001D01*
X281667Y214759D01*
Y212759D01*
X277668Y211426D02*
X281667D01*
X279668D01*
X279001Y210760D01*
Y209427D01*
X279668Y208761D01*
X281667D01*
Y203429D02*
Y202096D01*
Y202763D01*
X279001D01*
Y203429D01*
X281667Y200097D02*
Y198097D01*
X281001Y197431D01*
X280334Y198097D01*
Y199430D01*
X279668Y200097D01*
X279001Y199430D01*
Y197431D01*
X281667Y191433D02*
Y190100D01*
X281001Y189434D01*
X279668D01*
X279001Y190100D01*
Y191433D01*
X279668Y192099D01*
X281001D01*
X281667Y191433D01*
Y187434D02*
X278335D01*
X279668D01*
Y188101D01*
Y186768D01*
Y187434D01*
X278335D01*
X277668Y186768D01*
X281667Y184102D02*
X278335D01*
X279668D01*
Y184768D01*
Y183435D01*
Y184102D01*
X278335D01*
X277668Y183435D01*
X281667Y181436D02*
X281001D01*
Y180770D01*
X281667D01*
Y181436D01*
X131131Y198397D02*
X135130D01*
Y200397D01*
X134464Y201063D01*
X133131D01*
X132464Y200397D01*
Y198397D01*
X133797Y202396D02*
X131798D01*
X131131Y203063D01*
Y205062D01*
X133797D01*
X131131Y206395D02*
Y207728D01*
Y207061D01*
X135130D01*
Y206395D01*
X131131Y209727D02*
Y211060D01*
Y210394D01*
X135130D01*
Y209727D01*
X133797Y217058D02*
X131798D01*
X131131Y217724D01*
Y219724D01*
X133797D01*
X129798Y221057D02*
X133797D01*
Y223056D01*
X133131Y223723D01*
X131798D01*
X131131Y223056D01*
Y221057D01*
X129798Y229054D02*
X133797D01*
Y231053D01*
X133131Y231720D01*
X131798D01*
X131131Y231053D01*
Y229054D01*
Y233053D02*
Y234386D01*
Y233719D01*
X133797D01*
Y233053D01*
X131131Y236385D02*
X133797D01*
Y238385D01*
X133131Y239051D01*
X131131D01*
X135130Y244383D02*
X131131D01*
Y246382D01*
X131798Y247048D01*
X132464D01*
X133131Y246382D01*
Y244383D01*
Y246382D01*
X133797Y247048D01*
X134464D01*
X135130Y246382D01*
Y244383D01*
X131131Y249048D02*
Y250381D01*
X131798Y251047D01*
X133131D01*
X133797Y250381D01*
Y249048D01*
X133131Y248381D01*
X131798D01*
X131131Y249048D01*
Y253046D02*
Y254379D01*
X131798Y255046D01*
X133131D01*
X133797Y254379D01*
Y253046D01*
X133131Y252380D01*
X131798D01*
X131131Y253046D01*
X134464Y257045D02*
X133797D01*
Y256379D01*
Y257712D01*
Y257045D01*
X131798D01*
X131131Y257712D01*
Y259711D02*
Y261044D01*
Y260377D01*
X135130D01*
X134464Y259711D01*
Y267708D02*
X133797D01*
Y267042D01*
Y268375D01*
Y267708D01*
X131798D01*
X131131Y268375D01*
Y271041D02*
Y272374D01*
X131798Y273040D01*
X133131D01*
X133797Y272374D01*
Y271041D01*
X133131Y270374D01*
X131798D01*
X131131Y271041D01*
X122600Y192399D02*
Y191067D01*
X123266Y190400D01*
X124599D01*
X125266Y191067D01*
Y192399D01*
X124599Y193066D01*
X123933D01*
Y190400D01*
X122600Y194399D02*
X125266D01*
Y196398D01*
X124599Y197064D01*
X122600D01*
X125266Y199064D02*
Y200397D01*
X124599Y201063D01*
X122600D01*
Y199064D01*
X123266Y198397D01*
X123933Y199064D01*
Y201063D01*
X126599Y202396D02*
X122600D01*
Y204396D01*
X123266Y205062D01*
X123933D01*
X124599D01*
X125266Y204396D01*
Y202396D01*
X122600Y206395D02*
Y207728D01*
Y207061D01*
X126599D01*
Y206395D01*
X122600Y211726D02*
Y210394D01*
X123266Y209727D01*
X124599D01*
X125266Y210394D01*
Y211726D01*
X124599Y212393D01*
X123933D01*
Y209727D01*
X122600Y217724D02*
Y219724D01*
X123266Y220390D01*
X123933Y219724D01*
Y218391D01*
X124599Y217724D01*
X125266Y218391D01*
Y220390D01*
X122600Y223723D02*
Y222390D01*
X123266Y221723D01*
X124599D01*
X125266Y222390D01*
Y223723D01*
X124599Y224389D01*
X123933D01*
Y221723D01*
X125266Y225722D02*
X122600D01*
X123933D01*
X124599Y226388D01*
X125266Y227055D01*
Y227721D01*
X122600Y229721D02*
Y231053D01*
Y230387D01*
X125266D01*
Y229721D01*
Y233719D02*
Y235052D01*
X124599Y235719D01*
X122600D01*
Y233719D01*
X123266Y233053D01*
X123933Y233719D01*
Y235719D01*
X122600Y237052D02*
Y238385D01*
Y237718D01*
X126599D01*
Y237052D01*
Y244383D02*
X122600D01*
Y246382D01*
X123266Y247048D01*
X123933D01*
X124599D01*
X125266Y246382D01*
Y244383D01*
X122600Y249048D02*
Y250381D01*
X123266Y251047D01*
X124599D01*
X125266Y250381D01*
Y249048D01*
X124599Y248381D01*
X123266D01*
X122600Y249048D01*
Y253046D02*
Y254379D01*
X123266Y255046D01*
X124599D01*
X125266Y254379D01*
Y253046D01*
X124599Y252380D01*
X123266D01*
X122600Y253046D01*
X125932Y257045D02*
X125266D01*
Y256379D01*
Y257712D01*
Y257045D01*
X123266D01*
X122600Y257712D01*
Y259711D02*
Y261044D01*
Y260377D01*
X126599D01*
Y259711D01*
X122600Y263710D02*
Y265043D01*
X123266Y265709D01*
X124599D01*
X125266Y265043D01*
Y263710D01*
X124599Y263043D01*
X123266D01*
X122600Y263710D01*
X125266Y267708D02*
Y269041D01*
X124599Y269708D01*
X122600D01*
Y267708D01*
X123266Y267042D01*
X123933Y267708D01*
Y269708D01*
X126599Y273707D02*
X122600D01*
Y271707D01*
X123266Y271041D01*
X124599D01*
X125266Y271707D01*
Y273707D01*
X122600Y277039D02*
Y275706D01*
X123266Y275039D01*
X124599D01*
X125266Y275706D01*
Y277039D01*
X124599Y277705D01*
X123933D01*
Y275039D01*
X125266Y279038D02*
X122600D01*
X123933D01*
X124599Y279704D01*
X125266Y280371D01*
Y281037D01*
X263386Y311417D02*
Y317415D01*
X260387D01*
X259387Y316416D01*
Y314416D01*
X260387Y313417D01*
X263386D01*
X253389Y316416D02*
X254389Y317415D01*
X256388D01*
X257388Y316416D01*
Y312417D01*
X256388Y311417D01*
X254389D01*
X253389Y312417D01*
X251390Y317415D02*
Y311417D01*
X248391D01*
X247391Y312417D01*
Y313417D01*
X248391Y314416D01*
X251390D01*
X248391D01*
X247391Y315416D01*
Y316416D01*
X248391Y317415D01*
X251390D01*
X239394Y311417D02*
Y317415D01*
X236395D01*
X235395Y316416D01*
Y314416D01*
X236395Y313417D01*
X239394D01*
X233396Y311417D02*
X229397Y315416D01*
X227397Y311417D02*
Y317415D01*
X223399Y311417D01*
Y317415D01*
X221399Y315416D02*
X220400D01*
Y314416D01*
X221399D01*
Y315416D01*
Y312417D02*
X220400D01*
Y311417D01*
X221399D01*
Y312417D01*
X210403Y311417D02*
Y317415D01*
X206404Y311417D01*
Y317415D01*
X204405Y311417D02*
Y317415D01*
X201406D01*
X200406Y316416D01*
Y314416D01*
X201406Y313417D01*
X204405D01*
X194408Y316416D02*
X195408Y317415D01*
X197407D01*
X198407Y316416D01*
Y312417D01*
X197407Y311417D01*
X195408D01*
X194408Y312417D01*
X192409Y317415D02*
Y311417D01*
X189410D01*
X188410Y312417D01*
Y313417D01*
X189410Y314416D01*
X192409D01*
X189410D01*
X188410Y315416D01*
Y316416D01*
X189410Y317415D01*
X192409D01*
X186411Y314416D02*
X182412D01*
X176414Y316416D02*
X177414Y317415D01*
X179413D01*
X180413Y316416D01*
Y312417D01*
X179413Y311417D01*
X177414D01*
X176414Y312417D01*
X174415Y317415D02*
Y311417D01*
X172415Y313417D01*
X170416Y311417D01*
Y317415D01*
X168417Y316416D02*
X167417Y317415D01*
X165418D01*
X164418Y316416D01*
Y315416D01*
X165418Y314416D01*
X166417D01*
X165418D01*
X164418Y313417D01*
Y312417D01*
X165418Y311417D01*
X167417D01*
X168417Y312417D01*
X158420Y311417D02*
X162418D01*
X158420Y315416D01*
Y316416D01*
X159420Y317415D01*
X161419D01*
X162418Y316416D01*
X152422Y311417D02*
X156420D01*
X152422Y315416D01*
Y316416D01*
X153421Y317415D01*
X155421D01*
X156420Y316416D01*
X150422Y314416D02*
X146424D01*
X144424Y316416D02*
X143425Y317415D01*
X141425D01*
X140426Y316416D01*
Y312417D01*
X141425Y311417D01*
X143425D01*
X144424Y312417D01*
Y316416D01*
X134427Y311417D02*
X138426D01*
X134427Y315416D01*
Y316416D01*
X135427Y317415D01*
X137427D01*
X138426Y316416D01*
X262992Y321260D02*
Y327258D01*
X258993Y321260D01*
Y327258D01*
X253995Y321260D02*
X255994D01*
X256994Y322259D01*
Y324259D01*
X255994Y325259D01*
X253995D01*
X252995Y324259D01*
Y323259D01*
X256994D01*
X250996Y325259D02*
Y322259D01*
X249996Y321260D01*
X248997Y322259D01*
X247997Y321260D01*
X246997Y322259D01*
Y325259D01*
X244998Y321260D02*
Y325259D01*
X242999Y327258D01*
X240999Y325259D01*
Y321260D01*
Y324259D01*
X244998D01*
X235001Y327258D02*
X239000D01*
Y321260D01*
X235001D01*
X239000Y324259D02*
X237000D01*
X227004Y327258D02*
X223005D01*
X225004D01*
Y321260D01*
X218007D02*
X220006D01*
X221006Y322259D01*
Y324259D01*
X220006Y325259D01*
X218007D01*
X217007Y324259D01*
Y323259D01*
X221006D01*
X211009Y325259D02*
X214008D01*
X215008Y324259D01*
Y322259D01*
X214008Y321260D01*
X211009D01*
X209010Y327258D02*
Y321260D01*
Y324259D01*
X208010Y325259D01*
X206011D01*
X205011Y324259D01*
Y321260D01*
X203011D02*
Y325259D01*
X200012D01*
X199013Y324259D01*
Y321260D01*
X196014D02*
X194014D01*
X193015Y322259D01*
Y324259D01*
X194014Y325259D01*
X196014D01*
X197013Y324259D01*
Y322259D01*
X196014Y321260D01*
X191015D02*
X189016D01*
X190016D01*
Y327258D01*
X191015D01*
X185017Y321260D02*
X183018D01*
X182018Y322259D01*
Y324259D01*
X183018Y325259D01*
X185017D01*
X186017Y324259D01*
Y322259D01*
X185017Y321260D01*
X178020Y319261D02*
X177020D01*
X176020Y320260D01*
Y325259D01*
X179019D01*
X180019Y324259D01*
Y322259D01*
X179019Y321260D01*
X176020D01*
X174021Y325259D02*
Y322259D01*
X173021Y321260D01*
X170022D01*
Y320260D01*
X171022Y319261D01*
X172022D01*
X170022Y321260D02*
Y325259D01*
X162025Y327258D02*
X160025D01*
X161025D01*
Y321260D01*
X162025D01*
X160025D01*
X157026D02*
Y325259D01*
X154027D01*
X153028Y324259D01*
Y321260D01*
X147030Y325259D02*
X150029D01*
X151028Y324259D01*
Y322259D01*
X150029Y321260D01*
X147030D01*
X145030D02*
Y322259D01*
X144031D01*
Y321260D01*
X145030D01*
X212300Y275400D02*
X210967D01*
X211634D01*
Y279399D01*
X212300Y278732D01*
X206302Y279399D02*
X207635Y278732D01*
X208968Y277399D01*
Y276066D01*
X208301Y275400D01*
X206968D01*
X206302Y276066D01*
Y276733D01*
X206968Y277399D01*
X208968D01*
X204969Y275400D02*
Y278066D01*
X204303D01*
X203636Y277399D01*
Y275400D01*
Y277399D01*
X202970Y278066D01*
X202303Y277399D01*
Y275400D01*
X200970D02*
Y278066D01*
X200304D01*
X199637Y277399D01*
Y275400D01*
Y277399D01*
X198971Y278066D01*
X198304Y277399D01*
Y275400D01*
X239100Y236700D02*
Y238033D01*
Y237366D01*
X243099D01*
X242432Y236700D01*
X243099Y242698D02*
X242432Y241365D01*
X241099Y240032D01*
X239766D01*
X239100Y240699D01*
Y242032D01*
X239766Y242698D01*
X240433D01*
X241099Y242032D01*
Y240032D01*
X239100Y244031D02*
X241766D01*
Y244697D01*
X241099Y245364D01*
X239100D01*
X241099D01*
X241766Y246030D01*
X241099Y246697D01*
X239100D01*
Y248030D02*
X241766D01*
Y248696D01*
X241099Y249363D01*
X239100D01*
X241099D01*
X241766Y250029D01*
X241099Y250695D01*
X239100D01*
X225200Y207732D02*
X224534Y208399D01*
X223201D01*
X222534Y207732D01*
Y207066D01*
X223201Y206399D01*
X222534Y205733D01*
Y205066D01*
X223201Y204400D01*
X224534D01*
X225200Y205066D01*
Y205733D01*
X224534Y206399D01*
X225200Y207066D01*
Y207732D01*
X224534Y206399D02*
X223201D01*
X221201Y204400D02*
Y207066D01*
X220535D01*
X219868Y206399D01*
Y204400D01*
Y206399D01*
X219202Y207066D01*
X218535Y206399D01*
Y204400D01*
X217203D02*
Y207066D01*
X216536D01*
X215870Y206399D01*
Y204400D01*
Y206399D01*
X215203Y207066D01*
X214537Y206399D01*
Y204400D01*
X197600Y207632D02*
X196933Y208299D01*
X195601D01*
X194934Y207632D01*
Y206966D01*
X195601Y206299D01*
X194934Y205633D01*
Y204966D01*
X195601Y204300D01*
X196933D01*
X197600Y204966D01*
Y205633D01*
X196933Y206299D01*
X197600Y206966D01*
Y207632D01*
X196933Y206299D02*
X195601D01*
X193601Y204300D02*
Y206966D01*
X192935D01*
X192268Y206299D01*
Y204300D01*
Y206299D01*
X191602Y206966D01*
X190936Y206299D01*
Y204300D01*
X189603D02*
Y206966D01*
X188936D01*
X188270Y206299D01*
Y204300D01*
Y206299D01*
X187603Y206966D01*
X186937Y206299D01*
Y204300D01*
X171432Y249400D02*
X172099Y250066D01*
Y251399D01*
X171432Y252066D01*
X170766D01*
X170099Y251399D01*
X169433Y252066D01*
X168766D01*
X168100Y251399D01*
Y250066D01*
X168766Y249400D01*
X169433D01*
X170099Y250066D01*
X170766Y249400D01*
X171432D01*
X170099Y250066D02*
Y251399D01*
X168100Y253399D02*
X170766D01*
Y254065D01*
X170099Y254732D01*
X168100D01*
X170099D01*
X170766Y255398D01*
X170099Y256065D01*
X168100D01*
Y257397D02*
X170766D01*
Y258064D01*
X170099Y258730D01*
X168100D01*
X170099D01*
X170766Y259397D01*
X170099Y260063D01*
X168100D01*
X171532Y221800D02*
X172199Y222466D01*
Y223799D01*
X171532Y224466D01*
X170866D01*
X170199Y223799D01*
X169533Y224466D01*
X168867D01*
X168200Y223799D01*
Y222466D01*
X168867Y221800D01*
X169533D01*
X170199Y222466D01*
X170866Y221800D01*
X171532D01*
X170199Y222466D02*
Y223799D01*
X168200Y225799D02*
X170866D01*
Y226465D01*
X170199Y227132D01*
X168200D01*
X170199D01*
X170866Y227798D01*
X170199Y228465D01*
X168200D01*
Y229797D02*
X170866D01*
Y230464D01*
X170199Y231130D01*
X168200D01*
X170199D01*
X170866Y231797D01*
X170199Y232463D01*
X168200D01*
D21*
X100000Y461600D02*
G03*
X99400Y461000I0J-600D01*
G01*
X100000Y461600D02*
G03*
X99400Y461000I0J-600D01*
G01*
X307100D02*
G03*
X306500Y461600I-600J0D01*
G01*
X307100Y461000D02*
G03*
X306500Y461600I-600J0D01*
G01*
Y99400D02*
G03*
X307100Y100000I0J600D01*
G01*
X306500Y99400D02*
G03*
X307100Y100000I0J600D01*
G01*
X99400D02*
G03*
X100000Y99400I600J0D01*
G01*
X99400Y100000D02*
G03*
X100000Y99400I600J0D01*
G01*
X307100Y100000D02*
Y461000D01*
X100000Y461600D02*
X306500D01*
X100000Y99400D02*
X306500D01*
X99400Y100000D02*
Y461000D01*
M02*
