G04*
G04 #@! TF.GenerationSoftware,Altium Limited,Altium Designer,18.1.7 (191)*
G04*
G04 Layer_Color=8421504*
%FSLAX25Y25*%
%MOIN*%
G70*
G01*
G75*
%ADD21C,0.01200*%
G04:AMPARAMS|DCode=22|XSize=39.37mil|YSize=35.43mil|CornerRadius=4.43mil|HoleSize=0mil|Usage=FLASHONLY|Rotation=270.000|XOffset=0mil|YOffset=0mil|HoleType=Round|Shape=RoundedRectangle|*
%AMROUNDEDRECTD22*
21,1,0.03937,0.02657,0,0,270.0*
21,1,0.03051,0.03543,0,0,270.0*
1,1,0.00886,-0.01329,-0.01526*
1,1,0.00886,-0.01329,0.01526*
1,1,0.00886,0.01329,0.01526*
1,1,0.00886,0.01329,-0.01526*
%
%ADD22ROUNDEDRECTD22*%
%ADD23R,0.12598X0.16535*%
%ADD24O,0.01662X0.05796*%
%ADD25O,0.05796X0.01662*%
%ADD26R,0.03740X0.02953*%
%ADD27R,0.03937X0.11024*%
G04:AMPARAMS|DCode=28|XSize=39.37mil|YSize=35.43mil|CornerRadius=4.43mil|HoleSize=0mil|Usage=FLASHONLY|Rotation=0.000|XOffset=0mil|YOffset=0mil|HoleType=Round|Shape=RoundedRectangle|*
%AMROUNDEDRECTD28*
21,1,0.03937,0.02657,0,0,0.0*
21,1,0.03051,0.03543,0,0,0.0*
1,1,0.00886,0.01526,-0.01329*
1,1,0.00886,-0.01526,-0.01329*
1,1,0.00886,-0.01526,0.01329*
1,1,0.00886,0.01526,0.01329*
%
%ADD28ROUNDEDRECTD28*%
G04:AMPARAMS|DCode=29|XSize=31.5mil|YSize=31.5mil|CornerRadius=3.94mil|HoleSize=0mil|Usage=FLASHONLY|Rotation=270.000|XOffset=0mil|YOffset=0mil|HoleType=Round|Shape=RoundedRectangle|*
%AMROUNDEDRECTD29*
21,1,0.03150,0.02362,0,0,270.0*
21,1,0.02362,0.03150,0,0,270.0*
1,1,0.00787,-0.01181,-0.01181*
1,1,0.00787,-0.01181,0.01181*
1,1,0.00787,0.01181,0.01181*
1,1,0.00787,0.01181,-0.01181*
%
%ADD29ROUNDEDRECTD29*%
G36*
X227594Y136795D02*
Y141520D01*
X217752D01*
Y136795D01*
X227594D01*
D02*
G37*
G36*
Y146638D02*
Y151362D01*
X217752D01*
Y146638D01*
X227594D01*
D02*
G37*
G36*
Y156480D02*
Y161205D01*
X217752D01*
Y156480D01*
X227594D01*
D02*
G37*
G36*
X249248Y136795D02*
Y141520D01*
X239405D01*
Y136795D01*
X249248D01*
D02*
G37*
G36*
Y146638D02*
Y151362D01*
X239405D01*
Y146638D01*
X249248D01*
D02*
G37*
G36*
Y156480D02*
Y161205D01*
X239405D01*
Y156480D01*
X249248D01*
D02*
G37*
D21*
X100000Y461600D02*
G03*
X99400Y461000I0J-600D01*
G01*
X100000Y461600D02*
G03*
X99400Y461000I0J-600D01*
G01*
X307100D02*
G03*
X306500Y461600I-600J0D01*
G01*
X307100Y461000D02*
G03*
X306500Y461600I-600J0D01*
G01*
Y99400D02*
G03*
X307100Y100000I0J600D01*
G01*
X306500Y99400D02*
G03*
X307100Y100000I0J600D01*
G01*
X99400D02*
G03*
X100000Y99400I600J0D01*
G01*
X99400Y100000D02*
G03*
X100000Y99400I600J0D01*
G01*
X307100Y100000D02*
Y461000D01*
X100000Y461600D02*
X306500D01*
X100000Y99400D02*
X306500D01*
X99400Y100000D02*
Y461000D01*
D22*
X252165Y185827D02*
D03*
X258858D02*
D03*
D23*
X145823Y396000D02*
D03*
X261177D02*
D03*
D24*
X216524Y224472D02*
D03*
X213374D02*
D03*
X210224D02*
D03*
X207075D02*
D03*
X203925D02*
D03*
X200776D02*
D03*
X197626D02*
D03*
X194476D02*
D03*
Y258528D02*
D03*
X197626D02*
D03*
X200776D02*
D03*
X203925D02*
D03*
X207075D02*
D03*
X210224D02*
D03*
X213374D02*
D03*
X216524D02*
D03*
D25*
X188472Y230476D02*
D03*
Y233626D02*
D03*
Y236776D02*
D03*
Y239925D02*
D03*
Y243075D02*
D03*
Y246224D02*
D03*
Y249374D02*
D03*
Y252524D02*
D03*
X222528D02*
D03*
Y249374D02*
D03*
Y246224D02*
D03*
Y243075D02*
D03*
Y239925D02*
D03*
Y236776D02*
D03*
Y233626D02*
D03*
Y230476D02*
D03*
D26*
X179000Y258256D02*
D03*
Y252744D02*
D03*
X232000Y224744D02*
D03*
Y230256D02*
D03*
D27*
X263126Y159917D02*
D03*
Y137083D02*
D03*
X278874D02*
D03*
Y159917D02*
D03*
D28*
X130000Y138516D02*
D03*
Y145209D02*
D03*
X150000Y138516D02*
D03*
Y145209D02*
D03*
X170000Y138516D02*
D03*
Y145209D02*
D03*
X130000Y181154D02*
D03*
Y187847D02*
D03*
D29*
X150000Y156362D02*
D03*
Y163055D02*
D03*
X130000Y163209D02*
D03*
Y156516D02*
D03*
X170000Y163555D02*
D03*
Y156862D02*
D03*
M02*
