G04*
G04 #@! TF.GenerationSoftware,Altium Limited,Altium Designer,18.1.7 (191)*
G04*
G04 Layer_Physical_Order=2*
G04 Layer_Color=16711680*
%FSLAX25Y25*%
%MOIN*%
G70*
G01*
G75*
%ADD16C,0.01000*%
%ADD21C,0.01200*%
%ADD52C,0.02400*%
%ADD53C,0.01600*%
%ADD55C,0.07874*%
%ADD56C,0.25000*%
%ADD57O,0.11000X0.06000*%
%ADD58R,0.11000X0.06000*%
%ADD59O,0.06000X0.11000*%
%ADD60R,0.06000X0.11000*%
%ADD61C,0.02400*%
%ADD62C,0.02600*%
G36*
X302529Y393774D02*
X302373Y393697D01*
X301929Y393534D01*
X300789Y394007D01*
X299500Y394177D01*
X298211Y394007D01*
X297010Y393509D01*
X295979Y392718D01*
X295187Y391687D01*
X294690Y390486D01*
X294520Y389197D01*
X294690Y387908D01*
X295187Y386707D01*
X295979Y385676D01*
X297010Y384884D01*
X298211Y384387D01*
X299500Y384217D01*
X300789Y384387D01*
X301929Y384859D01*
X302373Y384697D01*
X302529Y384620D01*
Y312729D01*
X301929Y312412D01*
X301000Y312534D01*
X296000D01*
X294956Y312397D01*
X293983Y311994D01*
X293147Y311353D01*
X292506Y310517D01*
X292103Y309544D01*
X291966Y308500D01*
X292103Y307456D01*
X292506Y306483D01*
X293147Y305647D01*
X293983Y305006D01*
X294956Y304603D01*
X296000Y304466D01*
X301000D01*
X301929Y304588D01*
X302529Y304271D01*
Y302729D01*
X301929Y302412D01*
X301000Y302535D01*
X296000D01*
X294956Y302397D01*
X293983Y301994D01*
X293147Y301353D01*
X292506Y300517D01*
X292103Y299544D01*
X291966Y298500D01*
X292103Y297456D01*
X292506Y296483D01*
X293147Y295647D01*
X293983Y295006D01*
X294956Y294603D01*
X296000Y294465D01*
X301000D01*
X301929Y294588D01*
X302529Y294271D01*
Y282729D01*
X301929Y282412D01*
X301000Y282535D01*
X296000D01*
X294956Y282397D01*
X293983Y281994D01*
X293147Y281353D01*
X292506Y280517D01*
X292103Y279544D01*
X291966Y278500D01*
X292103Y277456D01*
X292506Y276483D01*
X293147Y275647D01*
X293983Y275006D01*
X294956Y274603D01*
X296000Y274465D01*
X301000D01*
X301929Y274588D01*
X302529Y274271D01*
Y272729D01*
X301929Y272412D01*
X301000Y272534D01*
X296000D01*
X294956Y272397D01*
X293983Y271994D01*
X293147Y271353D01*
X292506Y270517D01*
X292103Y269544D01*
X291966Y268500D01*
X292103Y267456D01*
X292506Y266483D01*
X293147Y265647D01*
X293983Y265006D01*
X294956Y264603D01*
X296000Y264465D01*
X301000D01*
X301929Y264588D01*
X302529Y264271D01*
Y252729D01*
X301929Y252412D01*
X301000Y252535D01*
X296000D01*
X294956Y252397D01*
X293983Y251994D01*
X293147Y251353D01*
X292506Y250517D01*
X292103Y249544D01*
X291966Y248500D01*
X292103Y247456D01*
X292506Y246483D01*
X293147Y245647D01*
X293983Y245006D01*
X294956Y244603D01*
X296000Y244465D01*
X301000D01*
X301929Y244588D01*
X302529Y244271D01*
Y222729D01*
X301929Y222412D01*
X301000Y222534D01*
X296000D01*
X294956Y222397D01*
X293983Y221994D01*
X293147Y221353D01*
X292506Y220517D01*
X292103Y219544D01*
X291966Y218500D01*
X292103Y217456D01*
X292506Y216483D01*
X293147Y215647D01*
X293983Y215006D01*
X294956Y214603D01*
X296000Y214465D01*
X301000D01*
X301929Y214588D01*
X302529Y214271D01*
Y212729D01*
X301929Y212412D01*
X301000Y212534D01*
X296000D01*
X294956Y212397D01*
X293983Y211994D01*
X293147Y211353D01*
X292506Y210517D01*
X292103Y209544D01*
X291966Y208500D01*
X292103Y207456D01*
X292506Y206483D01*
X293147Y205647D01*
X293983Y205006D01*
X294956Y204603D01*
X296000Y204466D01*
X301000D01*
X301929Y204588D01*
X302529Y204271D01*
Y202729D01*
X301929Y202412D01*
X301000Y202535D01*
X296000D01*
X294956Y202397D01*
X293983Y201994D01*
X293147Y201353D01*
X292506Y200517D01*
X292103Y199544D01*
X291966Y198500D01*
X292103Y197456D01*
X292506Y196483D01*
X293147Y195647D01*
X293983Y195006D01*
X294956Y194603D01*
X296000Y194465D01*
X301000D01*
X301929Y194588D01*
X302529Y194271D01*
Y192729D01*
X301929Y192412D01*
X301000Y192534D01*
X296000D01*
X294956Y192397D01*
X293983Y191994D01*
X293147Y191353D01*
X292506Y190517D01*
X292103Y189544D01*
X291966Y188500D01*
X292103Y187456D01*
X292506Y186483D01*
X293147Y185647D01*
X293983Y185006D01*
X294956Y184603D01*
X296000Y184466D01*
X301000D01*
X301929Y184588D01*
X302529Y184271D01*
Y182729D01*
X301929Y182412D01*
X301000Y182535D01*
X296000D01*
X294956Y182397D01*
X293983Y181994D01*
X293147Y181353D01*
X292506Y180517D01*
X292103Y179544D01*
X291966Y178500D01*
X292103Y177456D01*
X292506Y176483D01*
X293147Y175647D01*
X293983Y175006D01*
X294956Y174603D01*
X296000Y174466D01*
X301000D01*
X301929Y174588D01*
X302529Y174271D01*
Y152729D01*
X301929Y152412D01*
X301000Y152534D01*
X296000D01*
X294956Y152397D01*
X293983Y151994D01*
X293147Y151353D01*
X292506Y150517D01*
X292103Y149544D01*
X291966Y148500D01*
X292103Y147456D01*
X292506Y146483D01*
X293147Y145647D01*
X293983Y145006D01*
X294956Y144603D01*
X296000Y144465D01*
X301000D01*
X301929Y144588D01*
X302529Y144271D01*
Y142729D01*
X301929Y142412D01*
X301000Y142534D01*
X296000D01*
X294956Y142397D01*
X293983Y141994D01*
X293147Y141353D01*
X292506Y140517D01*
X292103Y139544D01*
X291966Y138500D01*
X292103Y137456D01*
X292506Y136483D01*
X293147Y135647D01*
X293983Y135006D01*
X294956Y134603D01*
X296000Y134466D01*
X301000D01*
X301929Y134588D01*
X302529Y134271D01*
Y132729D01*
X301929Y132412D01*
X301000Y132535D01*
X296000D01*
X294956Y132397D01*
X293983Y131994D01*
X293147Y131353D01*
X292506Y130517D01*
X292103Y129544D01*
X291966Y128500D01*
X292103Y127456D01*
X292506Y126483D01*
X293147Y125647D01*
X293983Y125006D01*
X294956Y124603D01*
X296000Y124466D01*
X301000D01*
X301929Y124588D01*
X302529Y124271D01*
Y113266D01*
X302244Y113134D01*
X301929Y113102D01*
X301353Y113853D01*
X300517Y114494D01*
X299544Y114897D01*
X298500Y115034D01*
X297456Y114897D01*
X296483Y114494D01*
X295647Y113853D01*
X295006Y113017D01*
X294603Y112044D01*
X294465Y111000D01*
Y106000D01*
X294603Y104956D01*
X294762Y104571D01*
X294361Y103971D01*
X292638D01*
X292238Y104571D01*
X292397Y104956D01*
X292534Y106000D01*
Y111000D01*
X292397Y112044D01*
X291994Y113017D01*
X291353Y113853D01*
X290517Y114494D01*
X289544Y114897D01*
X288500Y115034D01*
X287456Y114897D01*
X286483Y114494D01*
X285647Y113853D01*
X285006Y113017D01*
X284603Y112044D01*
X284466Y111000D01*
Y106000D01*
X284603Y104956D01*
X284762Y104571D01*
X284362Y103971D01*
X282639D01*
X282238Y104571D01*
X282397Y104956D01*
X282535Y106000D01*
Y111000D01*
X282397Y112044D01*
X281994Y113017D01*
X281353Y113853D01*
X280517Y114494D01*
X279544Y114897D01*
X278500Y115034D01*
X277456Y114897D01*
X276483Y114494D01*
X275647Y113853D01*
X275006Y113017D01*
X274603Y112044D01*
X274465Y111000D01*
Y106000D01*
X274603Y104956D01*
X274762Y104571D01*
X274361Y103971D01*
X272639D01*
X272238Y104571D01*
X272397Y104956D01*
X272534Y106000D01*
Y111000D01*
X272397Y112044D01*
X271994Y113017D01*
X271353Y113853D01*
X270517Y114494D01*
X269544Y114897D01*
X268500Y115034D01*
X267456Y114897D01*
X266483Y114494D01*
X265647Y113853D01*
X265006Y113017D01*
X264603Y112044D01*
X264465Y111000D01*
Y106000D01*
X264603Y104956D01*
X264762Y104571D01*
X264362Y103971D01*
X262638D01*
X262238Y104571D01*
X262397Y104956D01*
X262534Y106000D01*
Y111000D01*
X262397Y112044D01*
X261994Y113017D01*
X261353Y113853D01*
X260517Y114494D01*
X259544Y114897D01*
X258500Y115034D01*
X257456Y114897D01*
X256483Y114494D01*
X255647Y113853D01*
X255006Y113017D01*
X254603Y112044D01*
X254466Y111000D01*
Y106000D01*
X254603Y104956D01*
X254762Y104571D01*
X254362Y103971D01*
X252639D01*
X252238Y104571D01*
X252397Y104956D01*
X252535Y106000D01*
Y111000D01*
X252397Y112044D01*
X251994Y113017D01*
X251353Y113853D01*
X250517Y114494D01*
X249544Y114897D01*
X248500Y115034D01*
X247456Y114897D01*
X246483Y114494D01*
X245647Y113853D01*
X245006Y113017D01*
X244603Y112044D01*
X244465Y111000D01*
Y106000D01*
X244603Y104956D01*
X244762Y104571D01*
X244361Y103971D01*
X242638D01*
X242238Y104571D01*
X242397Y104956D01*
X242534Y106000D01*
Y111000D01*
X242397Y112044D01*
X241994Y113017D01*
X241353Y113853D01*
X240517Y114494D01*
X239544Y114897D01*
X238500Y115034D01*
X237456Y114897D01*
X236483Y114494D01*
X235647Y113853D01*
X235006Y113017D01*
X234603Y112044D01*
X234466Y111000D01*
Y106000D01*
X234603Y104956D01*
X234762Y104571D01*
X234362Y103971D01*
X232639D01*
X232238Y104571D01*
X232397Y104956D01*
X232535Y106000D01*
Y111000D01*
X232397Y112044D01*
X231994Y113017D01*
X231353Y113853D01*
X230517Y114494D01*
X229544Y114897D01*
X228500Y115034D01*
X227456Y114897D01*
X226483Y114494D01*
X225647Y113853D01*
X225006Y113017D01*
X224603Y112044D01*
X224465Y111000D01*
Y106000D01*
X224603Y104956D01*
X224762Y104571D01*
X224361Y103971D01*
X222639D01*
X222238Y104571D01*
X222397Y104956D01*
X222534Y106000D01*
Y111000D01*
X222397Y112044D01*
X221994Y113017D01*
X221353Y113853D01*
X220517Y114494D01*
X220031Y114696D01*
X220029Y114711D01*
Y117867D01*
X225581Y123419D01*
X225913Y123915D01*
X226029Y124500D01*
Y204700D01*
X238679D01*
X238928Y204100D01*
X232071Y197244D01*
X231585Y196516D01*
X231414Y195658D01*
Y186718D01*
X231392Y186685D01*
X231222Y185827D01*
X231392Y184968D01*
X231414Y184935D01*
Y158843D01*
X231585Y157984D01*
X232071Y157256D01*
X232799Y156770D01*
X233658Y156599D01*
X234516Y156770D01*
X235244Y157256D01*
X235730Y157984D01*
X235901Y158843D01*
Y194728D01*
X247786Y206614D01*
X248272Y207342D01*
X248443Y208200D01*
Y235500D01*
Y243000D01*
Y260824D01*
X248529Y260953D01*
X248700Y261811D01*
X248529Y262669D01*
X248443Y262798D01*
Y276500D01*
X248272Y277358D01*
X247786Y278086D01*
X240486Y285386D01*
X239758Y285872D01*
X238900Y286043D01*
X173100D01*
X172242Y285872D01*
X171514Y285386D01*
X163614Y277486D01*
X163128Y276758D01*
X162957Y275900D01*
Y258300D01*
X163128Y257442D01*
X163614Y256714D01*
X168700Y251628D01*
X168700Y207800D01*
X171800Y204700D01*
X199253Y204700D01*
X199483Y204146D01*
X177866Y182529D01*
X139677D01*
X139656Y182533D01*
X139626Y182539D01*
X139615Y182543D01*
X139586Y182586D01*
X138858Y183072D01*
X138000Y183243D01*
X137142Y183072D01*
X136414Y182586D01*
X135928Y181858D01*
X135757Y181000D01*
X135928Y180142D01*
X136414Y179414D01*
X137142Y178928D01*
X138000Y178757D01*
X138858Y178928D01*
X139586Y179414D01*
X139615Y179457D01*
X139626Y179461D01*
X139656Y179467D01*
X139677Y179471D01*
X178500D01*
X179085Y179587D01*
X179581Y179919D01*
X204363Y204700D01*
X222385Y204700D01*
X222971Y204115D01*
Y125134D01*
X217419Y119581D01*
X217087Y119085D01*
X216971Y118500D01*
Y114711D01*
X216969Y114696D01*
X216483Y114494D01*
X215647Y113853D01*
X215006Y113017D01*
X214603Y112044D01*
X214465Y111000D01*
Y106000D01*
X214603Y104956D01*
X214762Y104571D01*
X214362Y103971D01*
X212638D01*
X212238Y104571D01*
X212397Y104956D01*
X212534Y106000D01*
Y111000D01*
X212397Y112044D01*
X211994Y113017D01*
X211353Y113853D01*
X210517Y114494D01*
X210402Y114542D01*
X210380Y114642D01*
X210335Y115083D01*
Y117740D01*
X214955Y122360D01*
X215353Y122955D01*
X215493Y123658D01*
Y157629D01*
X215730Y157984D01*
X215901Y158843D01*
X215730Y159701D01*
X215244Y160429D01*
X214516Y160915D01*
X213657Y161086D01*
X212799Y160915D01*
X212071Y160429D01*
X211585Y159701D01*
X211414Y158843D01*
X211585Y157984D01*
X211815Y157641D01*
X211822Y157498D01*
Y143182D01*
X211222Y143063D01*
X210566Y144648D01*
X209455Y146460D01*
X208075Y148075D01*
X206460Y149455D01*
X204648Y150566D01*
X202685Y151379D01*
X200618Y151875D01*
X198500Y152042D01*
X196382Y151875D01*
X194315Y151379D01*
X192352Y150566D01*
X190540Y149455D01*
X188925Y148075D01*
X187545Y146460D01*
X186434Y144648D01*
X185621Y142685D01*
X185125Y140618D01*
X184958Y138500D01*
X185125Y136382D01*
X185621Y134315D01*
X186434Y132352D01*
X187545Y130540D01*
X188925Y128925D01*
X190540Y127544D01*
X192352Y126434D01*
X194315Y125621D01*
X196382Y125125D01*
X198500Y124958D01*
X200618Y125125D01*
X202685Y125621D01*
X204648Y126434D01*
X206460Y127544D01*
X208075Y128925D01*
X209455Y130540D01*
X210566Y132352D01*
X211222Y133937D01*
X211822Y133818D01*
Y124418D01*
X207202Y119798D01*
X206804Y119202D01*
X206665Y118500D01*
Y115036D01*
X206653Y114880D01*
X206624Y114659D01*
X206598Y114542D01*
X206483Y114494D01*
X205647Y113853D01*
X205006Y113017D01*
X204603Y112044D01*
X204466Y111000D01*
Y106000D01*
X204603Y104956D01*
X204762Y104571D01*
X204361Y103971D01*
X182639D01*
X182238Y104571D01*
X182397Y104956D01*
X182535Y106000D01*
Y111000D01*
X182397Y112044D01*
X181994Y113017D01*
X181353Y113853D01*
X180517Y114494D01*
X179544Y114897D01*
X178500Y115034D01*
X177456Y114897D01*
X176483Y114494D01*
X175647Y113853D01*
X175006Y113017D01*
X174603Y112044D01*
X174466Y111000D01*
Y106000D01*
X174603Y104956D01*
X174762Y104571D01*
X174361Y103971D01*
X172639D01*
X172238Y104571D01*
X172397Y104956D01*
X172535Y106000D01*
Y111000D01*
X172397Y112044D01*
X171994Y113017D01*
X171353Y113853D01*
X170517Y114494D01*
X169544Y114897D01*
X168500Y115034D01*
X167456Y114897D01*
X166483Y114494D01*
X165647Y113853D01*
X165006Y113017D01*
X164603Y112044D01*
X164465Y111000D01*
Y106000D01*
X164603Y104956D01*
X164762Y104571D01*
X164361Y103971D01*
X162639D01*
X162238Y104571D01*
X162397Y104956D01*
X162534Y106000D01*
Y111000D01*
X162397Y112044D01*
X161994Y113017D01*
X161353Y113853D01*
X160517Y114494D01*
X159544Y114897D01*
X158500Y115034D01*
X157456Y114897D01*
X156483Y114494D01*
X155647Y113853D01*
X155006Y113017D01*
X154603Y112044D01*
X154465Y111000D01*
Y106000D01*
X154603Y104956D01*
X154762Y104571D01*
X154361Y103971D01*
X152639D01*
X152238Y104571D01*
X152397Y104956D01*
X152534Y106000D01*
Y111000D01*
X152397Y112044D01*
X151994Y113017D01*
X151353Y113853D01*
X150517Y114494D01*
X149544Y114897D01*
X148500Y115034D01*
X147456Y114897D01*
X146483Y114494D01*
X145647Y113853D01*
X145006Y113017D01*
X144603Y112044D01*
X144465Y111000D01*
Y106000D01*
X144603Y104956D01*
X144762Y104571D01*
X144361Y103971D01*
X142639D01*
X142238Y104571D01*
X142397Y104956D01*
X142534Y106000D01*
Y111000D01*
X142397Y112044D01*
X141994Y113017D01*
X141353Y113853D01*
X140517Y114494D01*
X139544Y114897D01*
X138500Y115034D01*
X137456Y114897D01*
X136483Y114494D01*
X135647Y113853D01*
X135006Y113017D01*
X134603Y112044D01*
X134466Y111000D01*
Y106000D01*
X134603Y104956D01*
X134762Y104571D01*
X134361Y103971D01*
X132639D01*
X132238Y104571D01*
X132397Y104956D01*
X132535Y106000D01*
Y111000D01*
X132397Y112044D01*
X131994Y113017D01*
X131353Y113853D01*
X130517Y114494D01*
X129544Y114897D01*
X128500Y115034D01*
X127456Y114897D01*
X126483Y114494D01*
X125647Y113853D01*
X125006Y113017D01*
X124603Y112044D01*
X124466Y111000D01*
Y106000D01*
X124603Y104956D01*
X124762Y104571D01*
X124361Y103971D01*
X122639D01*
X122238Y104571D01*
X122397Y104956D01*
X122535Y106000D01*
Y111000D01*
X122397Y112044D01*
X121994Y113017D01*
X121353Y113853D01*
X120517Y114494D01*
X119544Y114897D01*
X118500Y115034D01*
X117456Y114897D01*
X116483Y114494D01*
X115647Y113853D01*
X115006Y113017D01*
X114603Y112044D01*
X114465Y111000D01*
Y106000D01*
X114603Y104956D01*
X114762Y104571D01*
X114361Y103971D01*
X103971D01*
Y124361D01*
X104571Y124762D01*
X104956Y124603D01*
X106000Y124466D01*
X111000D01*
X112044Y124603D01*
X113017Y125006D01*
X113853Y125647D01*
X114494Y126483D01*
X114897Y127456D01*
X115034Y128500D01*
X114897Y129544D01*
X114494Y130517D01*
X113853Y131353D01*
X113017Y131994D01*
X112044Y132397D01*
X111000Y132535D01*
X106000D01*
X104956Y132397D01*
X104571Y132238D01*
X103971Y132639D01*
Y134361D01*
X104571Y134762D01*
X104956Y134603D01*
X106000Y134466D01*
X111000D01*
X112044Y134603D01*
X113017Y135006D01*
X113853Y135647D01*
X114494Y136483D01*
X114897Y137456D01*
X115034Y138500D01*
X114897Y139544D01*
X114494Y140517D01*
X113853Y141353D01*
X113017Y141994D01*
X112044Y142397D01*
X111000Y142534D01*
X106000D01*
X104956Y142397D01*
X104571Y142238D01*
X103971Y142639D01*
Y144361D01*
X104571Y144762D01*
X104956Y144603D01*
X106000Y144465D01*
X111000D01*
X112044Y144603D01*
X113017Y145006D01*
X113853Y145647D01*
X114494Y146483D01*
X114897Y147456D01*
X115034Y148500D01*
X114897Y149544D01*
X114494Y150517D01*
X113853Y151353D01*
X113017Y151994D01*
X112044Y152397D01*
X111000Y152534D01*
X106000D01*
X104956Y152397D01*
X104571Y152238D01*
X103971Y152639D01*
Y154361D01*
X104571Y154762D01*
X104956Y154603D01*
X106000Y154465D01*
X111000D01*
X112044Y154603D01*
X113017Y155006D01*
X113853Y155647D01*
X114494Y156483D01*
X114897Y157456D01*
X115034Y158500D01*
X114897Y159544D01*
X114494Y160517D01*
X113853Y161353D01*
X113017Y161994D01*
X112044Y162397D01*
X111000Y162534D01*
X106000D01*
X104956Y162397D01*
X104571Y162238D01*
X103971Y162639D01*
Y184361D01*
X104571Y184762D01*
X104956Y184603D01*
X106000Y184466D01*
X111000D01*
X112044Y184603D01*
X113017Y185006D01*
X113853Y185647D01*
X114494Y186483D01*
X114897Y187456D01*
X115034Y188500D01*
X114897Y189544D01*
X114494Y190517D01*
X113853Y191353D01*
X113017Y191994D01*
X112044Y192397D01*
X111000Y192534D01*
X106000D01*
X104956Y192397D01*
X104571Y192238D01*
X103971Y192639D01*
Y194361D01*
X104571Y194762D01*
X104956Y194603D01*
X106000Y194465D01*
X111000D01*
X112044Y194603D01*
X113017Y195006D01*
X113853Y195647D01*
X114494Y196483D01*
X114897Y197456D01*
X115034Y198500D01*
X114897Y199544D01*
X114494Y200517D01*
X113853Y201353D01*
X113017Y201994D01*
X112044Y202397D01*
X111000Y202535D01*
X106000D01*
X104956Y202397D01*
X104571Y202238D01*
X103971Y202639D01*
Y204361D01*
X104571Y204762D01*
X104956Y204603D01*
X106000Y204466D01*
X111000D01*
X112044Y204603D01*
X113017Y205006D01*
X113853Y205647D01*
X114494Y206483D01*
X114897Y207456D01*
X115034Y208500D01*
X114897Y209544D01*
X114494Y210517D01*
X113853Y211353D01*
X113017Y211994D01*
X112044Y212397D01*
X111000Y212534D01*
X106000D01*
X104956Y212397D01*
X104571Y212238D01*
X103971Y212638D01*
Y214362D01*
X104571Y214762D01*
X104956Y214603D01*
X106000Y214465D01*
X111000D01*
X112044Y214603D01*
X113017Y215006D01*
X113853Y215647D01*
X114494Y216483D01*
X114897Y217456D01*
X115034Y218500D01*
X114897Y219544D01*
X114494Y220517D01*
X113853Y221353D01*
X113017Y221994D01*
X112044Y222397D01*
X111000Y222534D01*
X106000D01*
X104956Y222397D01*
X104571Y222238D01*
X103971Y222639D01*
Y224361D01*
X104571Y224762D01*
X104956Y224603D01*
X106000Y224465D01*
X111000D01*
X112044Y224603D01*
X113017Y225006D01*
X113853Y225647D01*
X114494Y226483D01*
X114897Y227456D01*
X115034Y228500D01*
X114897Y229544D01*
X114494Y230517D01*
X113853Y231353D01*
X113017Y231994D01*
X112044Y232397D01*
X111000Y232535D01*
X106000D01*
X104956Y232397D01*
X104571Y232238D01*
X103971Y232639D01*
Y234362D01*
X104571Y234762D01*
X104956Y234603D01*
X106000Y234466D01*
X111000D01*
X112044Y234603D01*
X113017Y235006D01*
X113853Y235647D01*
X114494Y236483D01*
X114897Y237456D01*
X115034Y238500D01*
X114897Y239544D01*
X114494Y240517D01*
X113853Y241353D01*
X113017Y241994D01*
X112044Y242397D01*
X111000Y242534D01*
X106000D01*
X104956Y242397D01*
X104571Y242238D01*
X103971Y242638D01*
Y244361D01*
X104571Y244762D01*
X104956Y244603D01*
X106000Y244465D01*
X111000D01*
X112044Y244603D01*
X113017Y245006D01*
X113853Y245647D01*
X114494Y246483D01*
X114897Y247456D01*
X115034Y248500D01*
X114897Y249544D01*
X114494Y250517D01*
X113853Y251353D01*
X113017Y251994D01*
X112044Y252397D01*
X111000Y252535D01*
X106000D01*
X104956Y252397D01*
X104571Y252238D01*
X103971Y252639D01*
Y254362D01*
X104571Y254762D01*
X104956Y254603D01*
X106000Y254466D01*
X111000D01*
X112044Y254603D01*
X113017Y255006D01*
X113853Y255647D01*
X114494Y256483D01*
X114897Y257456D01*
X115034Y258500D01*
X114897Y259544D01*
X114494Y260517D01*
X113853Y261353D01*
X113017Y261994D01*
X112044Y262397D01*
X111000Y262534D01*
X106000D01*
X104956Y262397D01*
X104571Y262238D01*
X103971Y262638D01*
Y274361D01*
X104571Y274762D01*
X104956Y274603D01*
X106000Y274465D01*
X111000D01*
X112044Y274603D01*
X113017Y275006D01*
X113853Y275647D01*
X114494Y276483D01*
X114897Y277456D01*
X115034Y278500D01*
X114897Y279544D01*
X114494Y280517D01*
X113853Y281353D01*
X113017Y281994D01*
X112044Y282397D01*
X111000Y282535D01*
X106000D01*
X104956Y282397D01*
X104571Y282238D01*
X103971Y282639D01*
Y294361D01*
X104571Y294762D01*
X104956Y294603D01*
X106000Y294465D01*
X111000D01*
X112044Y294603D01*
X113017Y295006D01*
X113853Y295647D01*
X114494Y296483D01*
X114897Y297456D01*
X115034Y298500D01*
X114897Y299544D01*
X114494Y300517D01*
X113853Y301353D01*
X113017Y301994D01*
X112044Y302397D01*
X111000Y302535D01*
X106000D01*
X104956Y302397D01*
X104571Y302238D01*
X103971Y302639D01*
Y314500D01*
X115000D01*
Y322500D01*
X103971D01*
Y457029D01*
X302529D01*
Y393774D01*
D02*
G37*
G36*
X247400Y235500D02*
X245000Y231900D01*
X244976Y232356D01*
X244904Y232764D01*
X244784Y233124D01*
X244616Y233436D01*
X244400Y233700D01*
X244136Y233916D01*
X243824Y234084D01*
X243464Y234204D01*
X243056Y234276D01*
X242600Y234300D01*
Y236700D01*
X243056Y236724D01*
X243464Y236796D01*
X243824Y236916D01*
X244136Y237084D01*
X244400Y237300D01*
X244616Y237564D01*
X244784Y237876D01*
X244904Y238236D01*
X244976Y238644D01*
X245000Y239100D01*
X247400Y235500D01*
D02*
G37*
G36*
X214577Y215767D02*
X214590Y215673D01*
X214611Y215580D01*
X214641Y215487D01*
X214680Y215395D01*
X214728Y215304D01*
X214785Y215214D01*
X214850Y215124D01*
X214925Y215035D01*
X215008Y214947D01*
X214301Y214240D01*
X214213Y214323D01*
X214124Y214398D01*
X214034Y214463D01*
X213944Y214520D01*
X213853Y214568D01*
X213761Y214607D01*
X213668Y214637D01*
X213575Y214658D01*
X213481Y214671D01*
X213386Y214674D01*
X214574Y215862D01*
X214577Y215767D01*
D02*
G37*
G36*
X213362Y214674D02*
X213267Y214671D01*
X213173Y214658D01*
X213080Y214637D01*
X212987Y214607D01*
X212895Y214568D01*
X212804Y214520D01*
X212714Y214463D01*
X212624Y214398D01*
X212535Y214323D01*
X212447Y214240D01*
X211740Y214947D01*
X211823Y215035D01*
X211898Y215124D01*
X211963Y215214D01*
X212020Y215304D01*
X212068Y215395D01*
X212107Y215487D01*
X212137Y215580D01*
X212158Y215673D01*
X212171Y215767D01*
X212174Y215862D01*
X213362Y214674D01*
D02*
G37*
G36*
X138926Y181775D02*
X139002Y181718D01*
X139083Y181667D01*
X139170Y181622D01*
X139262Y181585D01*
X139360Y181554D01*
X139464Y181531D01*
X139574Y181514D01*
X139690Y181503D01*
X139811Y181500D01*
Y180500D01*
X139690Y180497D01*
X139574Y180486D01*
X139464Y180469D01*
X139360Y180446D01*
X139262Y180415D01*
X139170Y180378D01*
X139083Y180333D01*
X139002Y180282D01*
X138926Y180225D01*
X138857Y180160D01*
Y181840D01*
X138926Y181775D01*
D02*
G37*
G36*
X214490Y157971D02*
X214483Y157943D01*
X214477Y157901D01*
X214468Y157777D01*
X214458Y157365D01*
X214458Y157228D01*
X212858D01*
X212818Y157985D01*
X214497D01*
X214490Y157971D01*
D02*
G37*
G36*
X219005Y114735D02*
X219020Y114541D01*
X219045Y114369D01*
X219079Y114220D01*
X219124Y114094D01*
X219179Y113991D01*
X219243Y113911D01*
X219318Y113853D01*
X219402Y113819D01*
X219496Y113808D01*
X217503D01*
X217598Y113819D01*
X217682Y113853D01*
X217757Y113911D01*
X217821Y113991D01*
X217876Y114094D01*
X217921Y114220D01*
X217955Y114369D01*
X217980Y114541D01*
X217995Y114735D01*
X218000Y114953D01*
X219000D01*
X219005Y114735D01*
D02*
G37*
G36*
X209308Y115108D02*
X209371Y114481D01*
X209427Y114227D01*
X209499Y114012D01*
X209586Y113836D01*
X209689Y113698D01*
X209808Y113601D01*
X209943Y113542D01*
X210094Y113522D01*
X206906D01*
X207057Y113542D01*
X207192Y113601D01*
X207311Y113698D01*
X207414Y113836D01*
X207501Y114012D01*
X207573Y114227D01*
X207628Y114481D01*
X207668Y114775D01*
X207692Y115108D01*
X207700Y115480D01*
X209300D01*
X209308Y115108D01*
D02*
G37*
%LPC*%
G36*
X234697Y417313D02*
X233218Y417118D01*
X231840Y416547D01*
X230656Y415639D01*
X229748Y414456D01*
X229177Y413077D01*
X228983Y411598D01*
X229177Y410119D01*
X229748Y408741D01*
X230656Y407558D01*
X231840Y406650D01*
X233218Y406079D01*
X234697Y405884D01*
X236176Y406079D01*
X237554Y406650D01*
X238737Y407558D01*
X239646Y408741D01*
X240216Y410119D01*
X240411Y411598D01*
X240216Y413077D01*
X239646Y414456D01*
X238737Y415639D01*
X237554Y416547D01*
X236176Y417118D01*
X234697Y417313D01*
D02*
G37*
G36*
X181783D02*
X180305Y417118D01*
X178926Y416547D01*
X177743Y415639D01*
X176835Y414456D01*
X176264Y413077D01*
X176069Y411598D01*
X176264Y410119D01*
X176835Y408741D01*
X177743Y407558D01*
X178926Y406650D01*
X180305Y406079D01*
X181783Y405884D01*
X183262Y406079D01*
X184641Y406650D01*
X185824Y407558D01*
X186732Y408741D01*
X187303Y410119D01*
X187498Y411598D01*
X187303Y413077D01*
X186732Y414456D01*
X185824Y415639D01*
X184641Y416547D01*
X183262Y417118D01*
X181783Y417313D01*
D02*
G37*
G36*
X279167Y391542D02*
X278552Y391420D01*
X275602D01*
X275500Y391440D01*
X275398Y391420D01*
X275261D01*
X274871Y391342D01*
X274745Y391290D01*
X274642Y391269D01*
X274554Y391211D01*
X274430Y391159D01*
X274099Y390938D01*
X274005Y390844D01*
X273914Y390783D01*
X273853Y390692D01*
X273762Y390601D01*
X273541Y390270D01*
X273491Y390150D01*
X273428Y390055D01*
X273405Y389943D01*
X273358Y389829D01*
X273280Y389439D01*
Y389315D01*
X273257Y389197D01*
X273280Y389079D01*
Y382922D01*
X247479Y357121D01*
X247258Y356790D01*
X247180Y356400D01*
Y352628D01*
X247155Y352500D01*
Y318000D01*
X247333Y317103D01*
X247842Y316342D01*
X274655Y289529D01*
Y159471D01*
X265529Y150345D01*
X233500D01*
X232603Y150167D01*
X231842Y149658D01*
X231333Y148897D01*
X231155Y148000D01*
X231333Y147103D01*
X231842Y146342D01*
X232603Y145833D01*
X233500Y145655D01*
X266500D01*
X267397Y145833D01*
X268158Y146342D01*
X278658Y156842D01*
X279167Y157603D01*
X279345Y158500D01*
Y261886D01*
X279408Y262205D01*
X279345Y262523D01*
Y290500D01*
X279167Y291397D01*
X278658Y292158D01*
X251845Y318971D01*
Y351303D01*
X288121Y387579D01*
X288121Y387579D01*
X288121Y387579D01*
X288192Y387650D01*
X288248Y387734D01*
X288319Y387805D01*
X288431Y387973D01*
X288470Y388065D01*
X288525Y388149D01*
X288603Y388335D01*
X288622Y388434D01*
X288661Y388527D01*
X288700Y388724D01*
X288700Y388825D01*
X288720Y388923D01*
Y389079D01*
X288743Y389197D01*
X288720Y389315D01*
Y389519D01*
X288642Y389909D01*
X288474Y390313D01*
X288253Y390644D01*
X287944Y390953D01*
X287613Y391175D01*
X287613Y391175D01*
X287209Y391342D01*
X286819Y391420D01*
X286602D01*
X286500Y391440D01*
X286398Y391420D01*
X282936D01*
X282833Y391440D01*
X282731Y391420D01*
X279782D01*
X279167Y391542D01*
D02*
G37*
G36*
X278500Y352042D02*
X276382Y351875D01*
X274315Y351379D01*
X272352Y350566D01*
X270540Y349455D01*
X268924Y348076D01*
X267545Y346460D01*
X266434Y344648D01*
X265621Y342685D01*
X265125Y340618D01*
X264958Y338500D01*
X265125Y336382D01*
X265621Y334315D01*
X266434Y332352D01*
X267545Y330540D01*
X268924Y328924D01*
X270540Y327544D01*
X272352Y326434D01*
X274315Y325621D01*
X276382Y325125D01*
X278500Y324958D01*
X280618Y325125D01*
X282685Y325621D01*
X284648Y326434D01*
X286460Y327544D01*
X288075Y328924D01*
X289456Y330540D01*
X290566Y332352D01*
X291379Y334315D01*
X291875Y336382D01*
X292042Y338500D01*
X291875Y340618D01*
X291379Y342685D01*
X290566Y344648D01*
X289456Y346460D01*
X288075Y348076D01*
X286460Y349455D01*
X284648Y350566D01*
X282685Y351379D01*
X280618Y351875D01*
X278500Y352042D01*
D02*
G37*
G36*
X128500D02*
X126382Y351875D01*
X124315Y351379D01*
X122352Y350566D01*
X120540Y349455D01*
X118924Y348076D01*
X117544Y346460D01*
X116434Y344648D01*
X115621Y342685D01*
X115125Y340618D01*
X114958Y338500D01*
X115125Y336382D01*
X115621Y334315D01*
X116434Y332352D01*
X117544Y330540D01*
X118924Y328924D01*
X120540Y327544D01*
X122352Y326434D01*
X124315Y325621D01*
X126382Y325125D01*
X128500Y324958D01*
X130618Y325125D01*
X132685Y325621D01*
X134648Y326434D01*
X136460Y327544D01*
X138075Y328924D01*
X139455Y330540D01*
X140566Y332352D01*
X141379Y334315D01*
X141875Y336382D01*
X142042Y338500D01*
X141875Y340618D01*
X141379Y342685D01*
X140566Y344648D01*
X139455Y346460D01*
X138075Y348076D01*
X136460Y349455D01*
X134648Y350566D01*
X132685Y351379D01*
X130618Y351875D01*
X128500Y352042D01*
D02*
G37*
%LPD*%
G36*
X287223Y390232D02*
X287532Y389923D01*
X287700Y389519D01*
Y389300D01*
Y389024D01*
Y388923D01*
X287661Y388725D01*
X287583Y388539D01*
X287471Y388371D01*
X287400Y388300D01*
X250300Y351200D01*
X248200D01*
Y356400D01*
X274300Y382500D01*
Y389200D01*
Y389439D01*
X274483Y389880D01*
X274820Y390217D01*
X275261Y390400D01*
X286819D01*
X287223Y390232D01*
D02*
G37*
D16*
X213374Y215874D02*
X224500Y204748D01*
X138000Y181000D02*
X178500D01*
X213374Y215874D01*
X218500Y108500D02*
Y118500D01*
X224500Y124500D01*
Y204748D01*
D21*
X100000Y461600D02*
G03*
X99400Y461000I0J-600D01*
G01*
X100000Y461600D02*
G03*
X99400Y461000I0J-600D01*
G01*
X307100D02*
G03*
X306500Y461600I-600J0D01*
G01*
X307100Y461000D02*
G03*
X306500Y461600I-600J0D01*
G01*
Y99400D02*
G03*
X307100Y100000I0J600D01*
G01*
X306500Y99400D02*
G03*
X307100Y100000I0J600D01*
G01*
X99400D02*
G03*
X100000Y99400I600J0D01*
G01*
X99400Y100000D02*
G03*
X100000Y99400I600J0D01*
G01*
X307100Y100000D02*
Y461000D01*
X100000Y461600D02*
X306500D01*
X100000Y99400D02*
X306500D01*
X99400Y100000D02*
Y461000D01*
D52*
X246200Y243000D02*
Y276500D01*
X233658Y158843D02*
Y195658D01*
X246200Y235500D02*
Y243000D01*
X246125Y243075D02*
X246200Y243000D01*
X240925Y243075D02*
X246125D01*
X246200Y208200D02*
Y235500D01*
X241100D02*
X246200D01*
X238900Y283800D02*
X246200Y276500D01*
X233658Y195658D02*
X246200Y208200D01*
X173100Y283800D02*
X238900D01*
X165200Y275900D02*
X173100Y283800D01*
X165200Y258300D02*
Y275900D01*
Y258300D02*
X170756Y252744D01*
D53*
X213657Y123658D02*
Y158843D01*
X208500Y118500D02*
X213657Y123658D01*
X208500Y108500D02*
Y118500D01*
D55*
X181783Y411598D02*
D03*
X234697D02*
D03*
X299500Y389197D02*
D03*
Y434000D02*
D03*
D56*
X278500Y338500D02*
D03*
X128500D02*
D03*
X198500Y138500D02*
D03*
D57*
X298500Y128500D02*
D03*
Y138500D02*
D03*
Y148500D02*
D03*
Y158500D02*
D03*
Y168500D02*
D03*
Y178500D02*
D03*
Y188500D02*
D03*
Y198500D02*
D03*
Y208500D02*
D03*
Y218500D02*
D03*
Y228500D02*
D03*
Y238500D02*
D03*
Y248500D02*
D03*
Y258500D02*
D03*
Y268500D02*
D03*
Y278500D02*
D03*
Y288500D02*
D03*
Y298500D02*
D03*
Y308500D02*
D03*
X108500Y128500D02*
D03*
Y138500D02*
D03*
Y148500D02*
D03*
Y158500D02*
D03*
Y168500D02*
D03*
Y178500D02*
D03*
Y188500D02*
D03*
Y198500D02*
D03*
Y208500D02*
D03*
Y218500D02*
D03*
Y228500D02*
D03*
Y238500D02*
D03*
Y248500D02*
D03*
Y258500D02*
D03*
Y268500D02*
D03*
Y278500D02*
D03*
Y288500D02*
D03*
Y298500D02*
D03*
Y308500D02*
D03*
D58*
X298500Y318500D02*
D03*
X108500D02*
D03*
D59*
X298500Y108500D02*
D03*
X288500D02*
D03*
X278500D02*
D03*
X268500D02*
D03*
X258500D02*
D03*
X248500D02*
D03*
X238500D02*
D03*
X228500D02*
D03*
X218500D02*
D03*
X208500D02*
D03*
X198500D02*
D03*
X188500D02*
D03*
X178500D02*
D03*
X168500D02*
D03*
X158500D02*
D03*
X148500D02*
D03*
X138500D02*
D03*
X128500D02*
D03*
X118500D02*
D03*
D60*
X108500D02*
D03*
D61*
X277165Y262205D02*
D03*
X246457Y261811D02*
D03*
X233465Y185827D02*
D03*
X241100Y235500D02*
D03*
X275500Y389197D02*
D03*
X279167D02*
D03*
X282833D02*
D03*
X286500D02*
D03*
X213657Y158843D02*
D03*
X213374Y215874D02*
D03*
X233658Y158843D02*
D03*
X233500Y148000D02*
D03*
X138000Y181000D02*
D03*
X240925Y243075D02*
D03*
X170756Y252744D02*
D03*
X112500Y120000D02*
D03*
Y330000D02*
D03*
X105000Y345000D02*
D03*
X112500Y360000D02*
D03*
X105000Y375000D02*
D03*
X112500Y390000D02*
D03*
X105000Y405000D02*
D03*
X112500Y420000D02*
D03*
X105000Y435000D02*
D03*
X112500Y450000D02*
D03*
X127500Y120000D02*
D03*
X120000Y135000D02*
D03*
Y195000D02*
D03*
X127500Y210000D02*
D03*
X120000Y225000D02*
D03*
X127500Y240000D02*
D03*
Y270000D02*
D03*
X120000Y285000D02*
D03*
X127500Y300000D02*
D03*
X120000Y315000D02*
D03*
X127500Y360000D02*
D03*
X120000Y375000D02*
D03*
X127500Y390000D02*
D03*
X120000Y405000D02*
D03*
X127500Y420000D02*
D03*
X120000Y435000D02*
D03*
X127500Y450000D02*
D03*
X142500Y120000D02*
D03*
X135000Y135000D02*
D03*
X142500Y150000D02*
D03*
X135000Y165000D02*
D03*
Y195000D02*
D03*
X142500Y210000D02*
D03*
X135000Y225000D02*
D03*
X142500Y240000D02*
D03*
X135000Y255000D02*
D03*
X142500Y270000D02*
D03*
X135000Y285000D02*
D03*
X142500Y300000D02*
D03*
X135000Y315000D02*
D03*
X142500Y330000D02*
D03*
Y360000D02*
D03*
X135000Y375000D02*
D03*
Y405000D02*
D03*
X142500Y420000D02*
D03*
X135000Y435000D02*
D03*
X142500Y450000D02*
D03*
X157500Y120000D02*
D03*
Y150000D02*
D03*
X150000Y195000D02*
D03*
X157500Y210000D02*
D03*
X150000Y225000D02*
D03*
X157500Y240000D02*
D03*
X150000Y255000D02*
D03*
X157500Y270000D02*
D03*
X150000Y285000D02*
D03*
X157500Y300000D02*
D03*
X150000Y315000D02*
D03*
X157500Y330000D02*
D03*
X150000Y345000D02*
D03*
X157500Y360000D02*
D03*
X150000Y375000D02*
D03*
X157500Y390000D02*
D03*
Y420000D02*
D03*
X150000Y435000D02*
D03*
X157500Y450000D02*
D03*
X172500Y120000D02*
D03*
X165000Y135000D02*
D03*
Y165000D02*
D03*
Y195000D02*
D03*
Y225000D02*
D03*
Y285000D02*
D03*
X172500Y300000D02*
D03*
X165000Y315000D02*
D03*
X172500Y330000D02*
D03*
X165000Y345000D02*
D03*
X172500Y360000D02*
D03*
X165000Y375000D02*
D03*
X172500Y390000D02*
D03*
X165000Y405000D02*
D03*
X172500Y420000D02*
D03*
X165000Y435000D02*
D03*
X172500Y450000D02*
D03*
X187500Y120000D02*
D03*
X180000Y135000D02*
D03*
X187500Y150000D02*
D03*
X180000Y165000D02*
D03*
X187500Y180000D02*
D03*
Y300000D02*
D03*
X180000Y315000D02*
D03*
X187500Y330000D02*
D03*
X180000Y345000D02*
D03*
X187500Y360000D02*
D03*
X180000Y375000D02*
D03*
X187500Y390000D02*
D03*
X180000Y405000D02*
D03*
X187500Y420000D02*
D03*
X180000Y435000D02*
D03*
X187500Y450000D02*
D03*
X202500Y120000D02*
D03*
X195000Y165000D02*
D03*
X202500Y180000D02*
D03*
Y300000D02*
D03*
X195000Y315000D02*
D03*
X202500Y330000D02*
D03*
X195000Y345000D02*
D03*
X202500Y360000D02*
D03*
X195000Y375000D02*
D03*
X202500Y390000D02*
D03*
X195000Y405000D02*
D03*
X202500Y420000D02*
D03*
X195000Y435000D02*
D03*
X202500Y450000D02*
D03*
X217500Y180000D02*
D03*
Y300000D02*
D03*
X210000Y315000D02*
D03*
X217500Y330000D02*
D03*
X210000Y345000D02*
D03*
X217500Y360000D02*
D03*
X210000Y375000D02*
D03*
X217500Y390000D02*
D03*
X210000Y405000D02*
D03*
X217500Y420000D02*
D03*
X210000Y435000D02*
D03*
X217500Y450000D02*
D03*
X232500Y300000D02*
D03*
X225000Y315000D02*
D03*
X232500Y330000D02*
D03*
X225000Y345000D02*
D03*
X232500Y360000D02*
D03*
X225000Y375000D02*
D03*
X232500Y390000D02*
D03*
X225000Y405000D02*
D03*
X232500Y420000D02*
D03*
X225000Y435000D02*
D03*
X232500Y450000D02*
D03*
X247500Y120000D02*
D03*
X240000Y165000D02*
D03*
X247500Y180000D02*
D03*
X240000Y195000D02*
D03*
X247500Y300000D02*
D03*
X240000Y315000D02*
D03*
Y345000D02*
D03*
X247500Y360000D02*
D03*
X240000Y375000D02*
D03*
X247500Y390000D02*
D03*
X240000Y405000D02*
D03*
X247500Y420000D02*
D03*
X240000Y435000D02*
D03*
X247500Y450000D02*
D03*
X262500Y120000D02*
D03*
X255000Y135000D02*
D03*
Y165000D02*
D03*
Y195000D02*
D03*
Y225000D02*
D03*
X262500Y240000D02*
D03*
X255000Y255000D02*
D03*
X262500Y270000D02*
D03*
X255000Y285000D02*
D03*
X262500Y300000D02*
D03*
Y330000D02*
D03*
X255000Y345000D02*
D03*
X262500Y360000D02*
D03*
X255000Y375000D02*
D03*
X262500Y420000D02*
D03*
X255000Y435000D02*
D03*
X262500Y450000D02*
D03*
X277500Y120000D02*
D03*
X270000Y135000D02*
D03*
X277500Y150000D02*
D03*
X270000Y165000D02*
D03*
Y195000D02*
D03*
Y225000D02*
D03*
Y255000D02*
D03*
Y285000D02*
D03*
X277500Y300000D02*
D03*
X270000Y315000D02*
D03*
X277500Y360000D02*
D03*
Y420000D02*
D03*
X270000Y435000D02*
D03*
X277500Y450000D02*
D03*
X292500Y120000D02*
D03*
X285000Y135000D02*
D03*
Y165000D02*
D03*
Y195000D02*
D03*
Y225000D02*
D03*
Y255000D02*
D03*
Y285000D02*
D03*
Y315000D02*
D03*
X292500Y330000D02*
D03*
Y360000D02*
D03*
X285000Y375000D02*
D03*
X292500Y420000D02*
D03*
X285000Y435000D02*
D03*
X292500Y450000D02*
D03*
D62*
X277000Y158500D02*
Y290500D01*
X279167Y382167D02*
Y389197D01*
X249500Y352500D02*
X279167Y382167D01*
X249500Y318000D02*
Y352500D01*
Y318000D02*
X277000Y290500D01*
X266500Y148000D02*
X277000Y158500D01*
X233500Y148000D02*
X266500D01*
M02*
