M48
;Layer_Color=9474304
;FILE_FORMAT=2:5
INCH,LZ
;TYPE=PLATED
T1F00S00C0.01200
T2F00S00C0.03900
T3F00S00C0.04626
T4F00S00C0.13400
;TYPE=NON_PLATED
T5F00S00C0.09331
%
T01
X01125Y012
X01275
X01425
X0135Y0135
X012
X01425Y015
X01575
X0165Y0135
X018
X01725Y012
X01575
X01875
X02025
X01875Y015
X02335Y0148
X0255Y0135
X027
X0285
X02775Y012
X02625
X02475
X02925
X02775Y015
X027Y0165
X0255
X024
X0233658Y0158843
X0213657
X0195Y0165
X018
X0165
Y0195
X01575Y021
X0165Y0225
X01575Y024
X0170756Y0252744
X01575Y027
X0165Y0285
X01575Y03
X01725
X01875
X02025
X02175
X02325
X02475
X02625
X02775
X027Y0285
X0255
X02625Y027
X0277165Y0262205
X027Y0255
X0255
X0246457Y0261811
X0240925Y0243075
X02411Y02355
X0255Y0225
X027
X0285
Y0195
X027
X0255
X024
X0233465Y0185827
X02475Y018
X02175
X02025
X01875
X0213374Y0215874
X02625Y024
X0285Y0255
Y0285
Y0165
X0135
X0138Y0181
X0135Y0195
X012
X01275Y021
X01425
X0135Y0225
X012
X01275Y024
X01425
X0135Y0255
X015
X01425Y027
X01275
X012Y0285
X0135
X015
X01425Y03
X01275
X015Y0225
Y0195
Y0315
X0135
X012
X01125Y033
X0105Y0345
X01125Y036
X01275
X01425
X0135Y0375
X012
X0105
X01125Y039
X01275
X012Y0405
X0105
X01125Y042
X01275
X01425
X0135Y0405
Y0435
X012
X0105
X01125Y045
X01275
X01425
X015Y0435
Y0375
Y0345
X01425Y033
X01575
X01725
X01875
X02025
X02175
X02325
X0225Y0315
X021
X0195
X018
X0165
Y0345
X018
X0195
X021
X0225
X024
X0255
X02475Y036
X02325
X02175
X02025
X01875
X01725
X01575
X0165Y0375
X018
X0195
X021
X0225
X024
X0255
X02475Y039
X02325
X02175
X02025
X01875
X01725
X01575
X0165Y0405
X018
X0195
X021
X0225
X024
X02325Y042
X02175
X02025
X01875
X01725
X01575
X0165Y0435
X018
X0195
X021
X0225
X024
X0255
X027
X0285
X02775Y042
X02625
X02475
Y045
X02325
X02175
X02025
X01875
X01725
X01575
X02625
X02775
X02925
Y042
X02865Y0389197
X0282833
X0279167
X02755
X0285Y0375
X02775Y036
X02625
Y033
X027Y0315
X0285
X02925Y033
Y036
X024Y0315
T02
X01085Y01085
X01185
X01285
X01385
X01485
X01085Y01285
Y01385
Y01485
X01585Y01085
X01685
X01785
X01885
X01985
X02085
X02185
X02285
X02385
X02485
X02585
X02685
X02785
X02885
X02985
Y01285
Y01385
Y01485
Y01585
Y01685
Y01785
Y01885
Y01985
Y02085
Y02185
Y02285
Y02385
Y02485
Y02585
Y02685
Y02785
Y02885
Y02985
Y03085
X01085
Y02985
Y02885
Y02785
Y02685
Y02585
Y02485
Y02385
Y02285
Y02185
Y02085
Y01985
Y01885
Y01785
Y01685
Y01585
Y03185
X02985
T03
X02995Y0389197
Y0434
T04
X01985Y01385
X01285Y03385
X02785
T05
X0181783Y0411598
X0234697
M30
