G04*
G04 #@! TF.GenerationSoftware,Altium Limited,Altium Designer,18.1.7 (191)*
G04*
G04 Layer_Color=16711935*
%FSLAX25Y25*%
%MOIN*%
G70*
G01*
G75*
%ADD21C,0.01200*%
%ADD41C,0.08674*%
%ADD42C,0.25800*%
%ADD43O,0.11800X0.06800*%
%ADD44R,0.11800X0.06800*%
%ADD45O,0.06800X0.11800*%
%ADD46R,0.06800X0.11800*%
D21*
X100000Y461600D02*
G03*
X99400Y461000I0J-600D01*
G01*
X100000Y461600D02*
G03*
X99400Y461000I0J-600D01*
G01*
X307100D02*
G03*
X306500Y461600I-600J0D01*
G01*
X307100Y461000D02*
G03*
X306500Y461600I-600J0D01*
G01*
Y99400D02*
G03*
X307100Y100000I0J600D01*
G01*
X306500Y99400D02*
G03*
X307100Y100000I0J600D01*
G01*
X99400D02*
G03*
X100000Y99400I600J0D01*
G01*
X99400Y100000D02*
G03*
X100000Y99400I600J0D01*
G01*
X307100Y100000D02*
Y461000D01*
X100000Y461600D02*
X306500D01*
X100000Y99400D02*
X306500D01*
X99400Y100000D02*
Y461000D01*
D41*
X181783Y411598D02*
D03*
X234697D02*
D03*
X299500Y389197D02*
D03*
Y434000D02*
D03*
D42*
X278500Y338500D02*
D03*
X128500D02*
D03*
X198500Y138500D02*
D03*
D43*
X298500Y128500D02*
D03*
Y138500D02*
D03*
Y148500D02*
D03*
Y158500D02*
D03*
Y168500D02*
D03*
Y178500D02*
D03*
Y188500D02*
D03*
Y198500D02*
D03*
Y208500D02*
D03*
Y218500D02*
D03*
Y228500D02*
D03*
Y238500D02*
D03*
Y248500D02*
D03*
Y258500D02*
D03*
Y268500D02*
D03*
Y278500D02*
D03*
Y288500D02*
D03*
Y298500D02*
D03*
Y308500D02*
D03*
X108500Y128500D02*
D03*
Y138500D02*
D03*
Y148500D02*
D03*
Y158500D02*
D03*
Y168500D02*
D03*
Y178500D02*
D03*
Y188500D02*
D03*
Y198500D02*
D03*
Y208500D02*
D03*
Y218500D02*
D03*
Y228500D02*
D03*
Y238500D02*
D03*
Y248500D02*
D03*
Y258500D02*
D03*
Y268500D02*
D03*
Y278500D02*
D03*
Y288500D02*
D03*
Y298500D02*
D03*
Y308500D02*
D03*
D44*
X298500Y318500D02*
D03*
X108500D02*
D03*
D45*
X298500Y108500D02*
D03*
X288500D02*
D03*
X278500D02*
D03*
X268500D02*
D03*
X258500D02*
D03*
X248500D02*
D03*
X238500D02*
D03*
X228500D02*
D03*
X218500D02*
D03*
X208500D02*
D03*
X198500D02*
D03*
X188500D02*
D03*
X178500D02*
D03*
X168500D02*
D03*
X158500D02*
D03*
X148500D02*
D03*
X138500D02*
D03*
X128500D02*
D03*
X118500D02*
D03*
D46*
X108500D02*
D03*
M02*
